G04 #@! TF.FileFunction,Copper,L1,Top,Signal*
%FSLAX46Y46*%
G04 Gerber Fmt 4.6, Leading zero omitted, Abs format (unit mm)*
G04 Created by KiCad (PCBNEW 4.0.2+e4-6225~38~ubuntu16.04.1-stable) date Sat 16 Jul 2016 01:47:43 AM PDT*
%MOMM*%
G01*
G04 APERTURE LIST*
%ADD10C,0.150000*%
%ADD11R,0.600000X0.400000*%
%ADD12R,0.400000X0.600000*%
%ADD13R,0.910000X1.220000*%
%ADD14R,2.500000X0.900000*%
%ADD15R,1.727200X2.032000*%
%ADD16O,1.727200X2.032000*%
%ADD17R,0.800100X0.800100*%
%ADD18R,0.300000X1.100000*%
%ADD19R,2.300000X3.100000*%
%ADD20C,0.320000*%
%ADD21C,0.160000*%
%ADD22C,0.350000*%
%ADD23C,0.500000*%
%ADD24C,0.254000*%
G04 APERTURE END LIST*
D10*
D11*
X117856000Y-62415000D03*
X117856000Y-63315000D03*
D12*
X125915000Y-72390000D03*
X126815000Y-72390000D03*
X125915000Y-71120000D03*
X126815000Y-71120000D03*
D11*
X123825000Y-60140000D03*
X123825000Y-59240000D03*
X125730000Y-59240000D03*
X125730000Y-60140000D03*
X118745000Y-59240000D03*
X118745000Y-60140000D03*
X115570000Y-62415000D03*
X115570000Y-63315000D03*
X126365000Y-63315000D03*
X126365000Y-62415000D03*
X116840000Y-59240000D03*
X116840000Y-60140000D03*
X114935000Y-59240000D03*
X114935000Y-60140000D03*
X113030000Y-59240000D03*
X113030000Y-60140000D03*
D13*
X113395000Y-67310000D03*
X110125000Y-67310000D03*
X120285000Y-63500000D03*
X123555000Y-63500000D03*
X110125000Y-64770000D03*
X113395000Y-64770000D03*
D14*
X122555000Y-72210000D03*
X122555000Y-75110000D03*
X122555000Y-69395000D03*
X122555000Y-66495000D03*
D15*
X111760000Y-78740000D03*
D16*
X114300000Y-78740000D03*
X116840000Y-78740000D03*
X119380000Y-78740000D03*
X121920000Y-78740000D03*
X124460000Y-78740000D03*
X127000000Y-78740000D03*
X129540000Y-78740000D03*
X132080000Y-78740000D03*
X134620000Y-78740000D03*
D17*
X126634240Y-65090000D03*
X126634240Y-66990000D03*
X128633220Y-66040000D03*
D12*
X128847000Y-62865000D03*
X127947000Y-62865000D03*
D11*
X127635000Y-59240000D03*
X127635000Y-60140000D03*
D18*
X127670000Y-55565000D03*
X127170000Y-55565000D03*
X126670000Y-55565000D03*
X126170000Y-55565000D03*
X125670000Y-55565000D03*
X125170000Y-55565000D03*
X124670000Y-55565000D03*
X124170000Y-55565000D03*
X123670000Y-55565000D03*
X123170000Y-55565000D03*
X122670000Y-55565000D03*
X122170000Y-55565000D03*
X121670000Y-55565000D03*
X121170000Y-55565000D03*
X120670000Y-55565000D03*
X120170000Y-55565000D03*
X119670000Y-55565000D03*
X119170000Y-55565000D03*
X118670000Y-55565000D03*
X118170000Y-55565000D03*
X117670000Y-55565000D03*
X117170000Y-55565000D03*
X116670000Y-55565000D03*
X116170000Y-55565000D03*
D19*
X129420000Y-53840000D03*
X114420000Y-53840000D03*
D12*
X116020000Y-72390000D03*
X115120000Y-72390000D03*
X116020000Y-71120000D03*
X115120000Y-71120000D03*
D20*
X117983000Y-67056000D03*
X117983000Y-69723000D03*
X128397000Y-61468000D03*
X129540000Y-61468000D03*
X120650000Y-76454000D03*
X123063000Y-76454000D03*
X119670000Y-59553002D03*
X122428000Y-59817000D03*
X118618000Y-54229000D03*
X115697000Y-61341000D03*
X120142000Y-62230000D03*
X121920000Y-61595000D03*
X116332000Y-56642000D03*
X112268000Y-65786000D03*
X122428000Y-67691000D03*
X122555000Y-71120000D03*
X122936000Y-52578000D03*
X122667013Y-53100987D03*
X121539000Y-53594000D03*
X121158000Y-56769000D03*
X121666000Y-57277000D03*
X123571000Y-54229000D03*
X127508000Y-58547000D03*
X128143000Y-67056000D03*
D21*
X118142999Y-69882999D02*
X117983000Y-69723000D01*
X118979998Y-70719998D02*
X118142999Y-69882999D01*
X122747002Y-70719998D02*
X118979998Y-70719998D01*
X123147004Y-71120000D02*
X122747002Y-70719998D01*
X125915000Y-71120000D02*
X123147004Y-71120000D01*
X117983000Y-67056000D02*
X113649000Y-67056000D01*
X113649000Y-67056000D02*
X113395000Y-67310000D01*
X125915000Y-72390000D02*
X125915000Y-71120000D01*
X113395000Y-67465000D02*
X113395000Y-67310000D01*
X113395000Y-67310000D02*
X113395000Y-64770000D01*
X126815000Y-72390000D02*
X126815000Y-71120000D01*
X126815000Y-71120000D02*
X126815000Y-71020000D01*
X123965000Y-69395000D02*
X122555000Y-69395000D01*
X126815000Y-71020000D02*
X125190000Y-69395000D01*
X125190000Y-69395000D02*
X123965000Y-69395000D01*
X122555000Y-69395000D02*
X122555000Y-68785000D01*
X122555000Y-68785000D02*
X125300000Y-66040000D01*
X125300000Y-66040000D02*
X128073170Y-66040000D01*
X128073170Y-66040000D02*
X128633220Y-66040000D01*
X128633220Y-66040000D02*
X125940000Y-66040000D01*
X125940000Y-66040000D02*
X123555000Y-63655000D01*
X123555000Y-63655000D02*
X123555000Y-63500000D01*
D22*
X114935000Y-60140000D02*
X113030000Y-60140000D01*
X128397000Y-61468000D02*
X127947000Y-61918000D01*
X127947000Y-61918000D02*
X127947000Y-62865000D01*
X129540000Y-76047600D02*
X129540000Y-61468000D01*
X127000000Y-78587600D02*
X129540000Y-76047600D01*
X124170000Y-55565000D02*
X124170000Y-57791998D01*
X124170000Y-57791998D02*
X122428000Y-59533998D01*
X122428000Y-59533998D02*
X122428000Y-59590726D01*
X122428000Y-59590726D02*
X122428000Y-59817000D01*
X115120000Y-71120000D02*
X112266998Y-71120000D01*
X112266998Y-71120000D02*
X109320000Y-68173002D01*
X109320000Y-68173002D02*
X109320000Y-65730000D01*
X109320000Y-65730000D02*
X110125000Y-64925000D01*
X110125000Y-64925000D02*
X110125000Y-64770000D01*
X115120000Y-72390000D02*
X115120000Y-71120000D01*
X120650000Y-76454000D02*
X118534000Y-76454000D01*
X118534000Y-76454000D02*
X115120000Y-73040000D01*
X115120000Y-73040000D02*
X115120000Y-72390000D01*
X127000000Y-78740000D02*
X127000000Y-78587600D01*
X127000000Y-78587600D02*
X124866400Y-76454000D01*
X124866400Y-76454000D02*
X123063000Y-76454000D01*
X127947000Y-62865000D02*
X127947000Y-60452000D01*
X127947000Y-60452000D02*
X127635000Y-60140000D01*
X127947000Y-62865000D02*
X127497000Y-62415000D01*
X127497000Y-62415000D02*
X126365000Y-62415000D01*
X125730000Y-60140000D02*
X125730000Y-61780000D01*
X125730000Y-61780000D02*
X126365000Y-62415000D01*
X123825000Y-60140000D02*
X122751000Y-60140000D01*
X122751000Y-60140000D02*
X122428000Y-59817000D01*
X127635000Y-60140000D02*
X123825000Y-60140000D01*
X119670000Y-56503002D02*
X119670000Y-55832327D01*
X119670000Y-55832327D02*
X119655001Y-55817328D01*
D23*
X119670000Y-59553002D02*
X119670000Y-56503002D01*
X118745000Y-60140000D02*
X119083002Y-60140000D01*
X119083002Y-60140000D02*
X119670000Y-59553002D01*
X118872000Y-61468000D02*
X118872000Y-60267000D01*
X118872000Y-60267000D02*
X118745000Y-60140000D01*
X117856000Y-63315000D02*
X118194002Y-63315000D01*
X118194002Y-63315000D02*
X118872000Y-62637002D01*
X118872000Y-62637002D02*
X118872000Y-61468000D01*
X115570000Y-63315000D02*
X114480000Y-63315000D01*
X114480000Y-63315000D02*
X113030000Y-61865000D01*
X113030000Y-60140000D02*
X116840000Y-60140000D01*
X113030000Y-60140000D02*
X113030000Y-61865000D01*
X113030000Y-61865000D02*
X111235000Y-63660000D01*
X111235000Y-63660000D02*
X111080000Y-63660000D01*
X111080000Y-63660000D02*
X110125000Y-64615000D01*
X110125000Y-64615000D02*
X110125000Y-64770000D01*
D21*
X123825000Y-59240000D02*
X123825000Y-58880000D01*
X123825000Y-58880000D02*
X125670000Y-57035000D01*
X125670000Y-57035000D02*
X125670000Y-56275000D01*
X125670000Y-56275000D02*
X125670000Y-55565000D01*
X125730000Y-59240000D02*
X125730000Y-58880000D01*
X125730000Y-58880000D02*
X126170000Y-58440000D01*
X126170000Y-58440000D02*
X126170000Y-56275000D01*
X126170000Y-56275000D02*
X126170000Y-55565000D01*
X118745000Y-59240000D02*
X118745000Y-58880000D01*
X118745000Y-58880000D02*
X119170000Y-58455000D01*
X119170000Y-58455000D02*
X119170000Y-56275000D01*
X119170000Y-56275000D02*
X119170000Y-55565000D01*
X117856000Y-62415000D02*
X117856000Y-57089000D01*
X117856000Y-57089000D02*
X118670000Y-56275000D01*
X118204999Y-56740001D02*
X118670000Y-56275000D01*
X118670000Y-56275000D02*
X118670000Y-55565000D01*
X118618000Y-54229000D02*
X118170000Y-54677000D01*
X118170000Y-54677000D02*
X118170000Y-55565000D01*
X115570000Y-62415000D02*
X115570000Y-61468000D01*
X115570000Y-61468000D02*
X115697000Y-61341000D01*
X120142000Y-62230000D02*
X120142000Y-63357000D01*
X120142000Y-63357000D02*
X120285000Y-63500000D01*
X124545000Y-61595000D02*
X121920000Y-61595000D01*
X126365000Y-63315000D02*
X126265000Y-63315000D01*
X126265000Y-63315000D02*
X124545000Y-61595000D01*
X117094000Y-63485002D02*
X117094000Y-62244998D01*
X117094000Y-62244998D02*
X117535990Y-61803008D01*
X119162000Y-64008000D02*
X117616998Y-64008000D01*
X117616998Y-64008000D02*
X117094000Y-63485002D01*
X120285000Y-63500000D02*
X119670000Y-63500000D01*
X119670000Y-63500000D02*
X119162000Y-64008000D01*
X117535990Y-56956448D02*
X117670000Y-56822438D01*
X117535990Y-61803008D02*
X117535990Y-56956448D01*
X117670000Y-56275000D02*
X117670000Y-55565000D01*
X117670000Y-56822438D02*
X117670000Y-56275000D01*
X116840000Y-59240000D02*
X116940000Y-59240000D01*
X116940000Y-59240000D02*
X117170000Y-59010000D01*
X117170000Y-59010000D02*
X117170000Y-56275000D01*
X117170000Y-56275000D02*
X117170000Y-55565000D01*
X114935000Y-59240000D02*
X115035000Y-59240000D01*
X115035000Y-59240000D02*
X116670000Y-57605000D01*
X116670000Y-57605000D02*
X116670000Y-56275000D01*
X116670000Y-56275000D02*
X116670000Y-55565000D01*
X116332000Y-56642000D02*
X116670000Y-56304000D01*
X116670000Y-56304000D02*
X116670000Y-55565000D01*
X110125000Y-67310000D02*
X110744000Y-67310000D01*
X110744000Y-67310000D02*
X112268000Y-65786000D01*
X110125000Y-67310000D02*
X110125000Y-66267002D01*
X114835000Y-59240000D02*
X114935000Y-59240000D01*
X113030000Y-59240000D02*
X113030000Y-58395000D01*
X115860000Y-55565000D02*
X116170000Y-55565000D01*
X113030000Y-58395000D02*
X115860000Y-55565000D01*
D22*
X120670000Y-55565000D02*
X120170000Y-55565000D01*
X120330011Y-56784613D02*
X120330011Y-55725011D01*
X120330011Y-55725011D02*
X120170000Y-55565000D01*
D23*
X121150001Y-57604603D02*
X120330011Y-56784613D01*
X121150001Y-65189999D02*
X121150001Y-57604603D01*
X116020000Y-70320000D02*
X121150001Y-65189999D01*
X116020000Y-71120000D02*
X116020000Y-70320000D01*
X116020000Y-72390000D02*
X116020000Y-71120000D01*
X122555000Y-75110000D02*
X118640000Y-75110000D01*
X118640000Y-75110000D02*
X116020000Y-72490000D01*
X116020000Y-72490000D02*
X116020000Y-72390000D01*
X121920000Y-78740000D02*
X121920000Y-75745000D01*
X121920000Y-75745000D02*
X122555000Y-75110000D01*
D21*
X122428000Y-67691000D02*
X122428000Y-66622000D01*
X122428000Y-66622000D02*
X122555000Y-66495000D01*
X122555000Y-72210000D02*
X122555000Y-71120000D01*
X122936000Y-52578000D02*
X122936000Y-52804274D01*
X122936000Y-52804274D02*
X123170000Y-53038274D01*
X123170000Y-53038274D02*
X123170000Y-54855000D01*
X123170000Y-54855000D02*
X123170000Y-55565000D01*
X122667013Y-53100987D02*
X122667013Y-55562013D01*
X122170000Y-54225000D02*
X122170000Y-54860000D01*
X122170000Y-54860000D02*
X122170000Y-55565000D01*
X121539000Y-53594000D02*
X122170000Y-54225000D01*
X121158000Y-56769000D02*
X121158000Y-55577000D01*
X121158000Y-55577000D02*
X121170000Y-55565000D01*
X121666000Y-57277000D02*
X121666000Y-55569000D01*
X121666000Y-55569000D02*
X121670000Y-55565000D01*
X123571000Y-54229000D02*
X123571000Y-55466000D01*
X123571000Y-55466000D02*
X123670000Y-55565000D01*
X128847000Y-62865000D02*
X128847000Y-62473000D01*
X128847000Y-62473000D02*
X128905000Y-62415000D01*
X126634240Y-64529950D02*
X127282050Y-64529950D01*
X127282050Y-64529950D02*
X128847000Y-62965000D01*
X128847000Y-62965000D02*
X128847000Y-62865000D01*
X126634240Y-65090000D02*
X126634240Y-64529950D01*
X128905000Y-62415000D02*
X128905000Y-57932002D01*
X128905000Y-57932002D02*
X127170000Y-56197002D01*
X127170000Y-56197002D02*
X127170000Y-55565000D01*
X127508000Y-58547000D02*
X127508000Y-59113000D01*
X127508000Y-59113000D02*
X127635000Y-59240000D01*
X126634240Y-66990000D02*
X128077000Y-66990000D01*
X128077000Y-66990000D02*
X128143000Y-67056000D01*
X127635000Y-59240000D02*
X127535000Y-59240000D01*
X127535000Y-59240000D02*
X126670000Y-58375000D01*
X126670000Y-58375000D02*
X126670000Y-56275000D01*
X126670000Y-56275000D02*
X126670000Y-55565000D01*
D24*
G36*
X112622560Y-55390000D02*
X112666838Y-55625317D01*
X112805910Y-55841441D01*
X113018110Y-55986431D01*
X113270000Y-56037440D01*
X114376397Y-56037440D01*
X112524419Y-57889419D01*
X112369426Y-58121381D01*
X112315000Y-58395000D01*
X112315000Y-58552461D01*
X112278559Y-58575910D01*
X112133569Y-58788110D01*
X112082560Y-59040000D01*
X112082560Y-59440000D01*
X112126838Y-59675317D01*
X112142339Y-59699406D01*
X112095000Y-59813691D01*
X112095000Y-59881250D01*
X112253750Y-60040000D01*
X112495734Y-60040000D01*
X112730000Y-60087440D01*
X113330000Y-60087440D01*
X113565317Y-60043162D01*
X113570231Y-60040000D01*
X113806250Y-60040000D01*
X113965000Y-59881250D01*
X113965000Y-59813691D01*
X113919033Y-59702717D01*
X113926431Y-59691890D01*
X113977440Y-59440000D01*
X113977440Y-59040000D01*
X113933162Y-58804683D01*
X113815042Y-58621120D01*
X115566059Y-56870104D01*
X115657639Y-57091743D01*
X115881081Y-57315575D01*
X115928551Y-57335287D01*
X114871278Y-58392560D01*
X114635000Y-58392560D01*
X114399683Y-58436838D01*
X114183559Y-58575910D01*
X114038569Y-58788110D01*
X113987560Y-59040000D01*
X113987560Y-59440000D01*
X114031838Y-59675317D01*
X114047339Y-59699406D01*
X114000000Y-59813691D01*
X114000000Y-59881250D01*
X114158750Y-60040000D01*
X114400734Y-60040000D01*
X114635000Y-60087440D01*
X115235000Y-60087440D01*
X115470317Y-60043162D01*
X115475231Y-60040000D01*
X115711250Y-60040000D01*
X115870000Y-59881250D01*
X115870000Y-59813691D01*
X115824033Y-59702717D01*
X115831431Y-59691890D01*
X115882440Y-59440000D01*
X115882440Y-59403722D01*
X115892560Y-59393602D01*
X115892560Y-59440000D01*
X115936838Y-59675317D01*
X115952339Y-59699406D01*
X115905000Y-59813691D01*
X115905000Y-59881250D01*
X116063750Y-60040000D01*
X116305734Y-60040000D01*
X116540000Y-60087440D01*
X116820990Y-60087440D01*
X116820990Y-60287000D01*
X116713000Y-60287000D01*
X116713000Y-60240000D01*
X116063750Y-60240000D01*
X115905000Y-60398750D01*
X115905000Y-60466309D01*
X115955149Y-60587380D01*
X115855829Y-60546138D01*
X115836941Y-60546122D01*
X115870000Y-60466309D01*
X115870000Y-60398750D01*
X115711250Y-60240000D01*
X115062000Y-60240000D01*
X115062000Y-60816250D01*
X115079677Y-60833927D01*
X115023425Y-60890081D01*
X114902138Y-61182171D01*
X114902095Y-61231236D01*
X114855000Y-61468000D01*
X114855000Y-61727461D01*
X114818559Y-61750910D01*
X114673569Y-61963110D01*
X114622560Y-62215000D01*
X114622560Y-62615000D01*
X114666838Y-62850317D01*
X114682339Y-62874406D01*
X114635000Y-62988691D01*
X114635000Y-63056250D01*
X114793750Y-63215000D01*
X115035734Y-63215000D01*
X115270000Y-63262440D01*
X115717000Y-63262440D01*
X115717000Y-63415000D01*
X115697000Y-63415000D01*
X115697000Y-63991250D01*
X115855750Y-64150000D01*
X115996310Y-64150000D01*
X116229699Y-64053327D01*
X116408327Y-63874698D01*
X116447613Y-63779853D01*
X116588419Y-63990583D01*
X117111417Y-64513581D01*
X117343379Y-64668574D01*
X117616998Y-64723000D01*
X119162000Y-64723000D01*
X119435619Y-64668574D01*
X119479648Y-64639155D01*
X119578110Y-64706431D01*
X119830000Y-64757440D01*
X120265001Y-64757440D01*
X120265001Y-64823420D01*
X118569839Y-66518582D01*
X118433919Y-66382425D01*
X118141829Y-66261138D01*
X117825558Y-66260862D01*
X117631610Y-66341000D01*
X114373574Y-66341000D01*
X114314090Y-66248559D01*
X114110000Y-66109110D01*
X114110000Y-65967279D01*
X114301441Y-65844090D01*
X114446431Y-65631890D01*
X114497440Y-65380000D01*
X114497440Y-64160000D01*
X114453162Y-63924683D01*
X114314090Y-63708559D01*
X114116791Y-63573750D01*
X114635000Y-63573750D01*
X114635000Y-63641309D01*
X114731673Y-63874698D01*
X114910301Y-64053327D01*
X115143690Y-64150000D01*
X115284250Y-64150000D01*
X115443000Y-63991250D01*
X115443000Y-63415000D01*
X114793750Y-63415000D01*
X114635000Y-63573750D01*
X114116791Y-63573750D01*
X114101890Y-63563569D01*
X113850000Y-63512560D01*
X112940000Y-63512560D01*
X112704683Y-63556838D01*
X112488559Y-63695910D01*
X112343569Y-63908110D01*
X112292560Y-64160000D01*
X112292560Y-64991021D01*
X112110558Y-64990862D01*
X111818257Y-65111639D01*
X111594425Y-65335081D01*
X111513949Y-65528888D01*
X110895682Y-66147156D01*
X110831890Y-66103569D01*
X110806467Y-66098421D01*
X110785574Y-65993383D01*
X110779704Y-65984599D01*
X110939698Y-65918327D01*
X111118327Y-65739699D01*
X111215000Y-65506310D01*
X111215000Y-65055750D01*
X111056250Y-64897000D01*
X110252000Y-64897000D01*
X110252000Y-64917000D01*
X109998000Y-64917000D01*
X109998000Y-64897000D01*
X109193750Y-64897000D01*
X109035000Y-65055750D01*
X109035000Y-65506310D01*
X109131673Y-65739699D01*
X109310302Y-65918327D01*
X109470296Y-65984599D01*
X109464426Y-65993383D01*
X109444204Y-66095047D01*
X109434683Y-66096838D01*
X109218559Y-66235910D01*
X109073569Y-66448110D01*
X109022560Y-66700000D01*
X109022560Y-67920000D01*
X109066838Y-68155317D01*
X109205910Y-68371441D01*
X109418110Y-68516431D01*
X109670000Y-68567440D01*
X110580000Y-68567440D01*
X110815317Y-68523162D01*
X111031441Y-68384090D01*
X111176431Y-68171890D01*
X111227440Y-67920000D01*
X111227440Y-67830375D01*
X111249581Y-67815581D01*
X112292560Y-66772603D01*
X112292560Y-67920000D01*
X112336838Y-68155317D01*
X112475910Y-68371441D01*
X112688110Y-68516431D01*
X112940000Y-68567440D01*
X113850000Y-68567440D01*
X114085317Y-68523162D01*
X114301441Y-68384090D01*
X114446431Y-68171890D01*
X114497440Y-67920000D01*
X114497440Y-67771000D01*
X117317420Y-67771000D01*
X115394210Y-69694210D01*
X115202367Y-69981325D01*
X115202367Y-69981326D01*
X115134999Y-70320000D01*
X115135000Y-70320005D01*
X115135000Y-72489995D01*
X115134999Y-72490000D01*
X115172560Y-72678828D01*
X115172560Y-72690000D01*
X115216838Y-72925317D01*
X115220000Y-72930231D01*
X115220000Y-73166250D01*
X115378750Y-73325000D01*
X115446309Y-73325000D01*
X115557283Y-73279033D01*
X115557821Y-73279401D01*
X118014208Y-75735787D01*
X118014210Y-75735790D01*
X118206054Y-75863975D01*
X118301326Y-75927634D01*
X118640000Y-75995001D01*
X118640005Y-75995000D01*
X120830331Y-75995000D01*
X120840910Y-76011441D01*
X121035000Y-76144057D01*
X121035000Y-77378874D01*
X120860330Y-77495585D01*
X120650000Y-77810366D01*
X120439670Y-77495585D01*
X119953489Y-77170729D01*
X119380000Y-77056655D01*
X118806511Y-77170729D01*
X118320330Y-77495585D01*
X118110000Y-77810366D01*
X117899670Y-77495585D01*
X117413489Y-77170729D01*
X116840000Y-77056655D01*
X116266511Y-77170729D01*
X115780330Y-77495585D01*
X115570000Y-77810366D01*
X115359670Y-77495585D01*
X114873489Y-77170729D01*
X114300000Y-77056655D01*
X113726511Y-77170729D01*
X113240330Y-77495585D01*
X113230757Y-77509913D01*
X113226762Y-77488683D01*
X113087690Y-77272559D01*
X112875490Y-77127569D01*
X112623600Y-77076560D01*
X110896400Y-77076560D01*
X110661083Y-77120838D01*
X110444959Y-77259910D01*
X110299969Y-77472110D01*
X110248960Y-77724000D01*
X110248960Y-79756000D01*
X110282641Y-79935000D01*
X107390000Y-79935000D01*
X107390000Y-72675750D01*
X114285000Y-72675750D01*
X114285000Y-72816310D01*
X114381673Y-73049699D01*
X114560302Y-73228327D01*
X114793691Y-73325000D01*
X114861250Y-73325000D01*
X115020000Y-73166250D01*
X115020000Y-72517000D01*
X114443750Y-72517000D01*
X114285000Y-72675750D01*
X107390000Y-72675750D01*
X107390000Y-71405750D01*
X114285000Y-71405750D01*
X114285000Y-71546310D01*
X114371442Y-71755000D01*
X114285000Y-71963690D01*
X114285000Y-72104250D01*
X114443750Y-72263000D01*
X115020000Y-72263000D01*
X115020000Y-71247000D01*
X114443750Y-71247000D01*
X114285000Y-71405750D01*
X107390000Y-71405750D01*
X107390000Y-70693690D01*
X114285000Y-70693690D01*
X114285000Y-70834250D01*
X114443750Y-70993000D01*
X115020000Y-70993000D01*
X115020000Y-70343750D01*
X114861250Y-70185000D01*
X114793691Y-70185000D01*
X114560302Y-70281673D01*
X114381673Y-70460301D01*
X114285000Y-70693690D01*
X107390000Y-70693690D01*
X107390000Y-64033690D01*
X109035000Y-64033690D01*
X109035000Y-64484250D01*
X109193750Y-64643000D01*
X109998000Y-64643000D01*
X109998000Y-63683750D01*
X110252000Y-63683750D01*
X110252000Y-64643000D01*
X111056250Y-64643000D01*
X111215000Y-64484250D01*
X111215000Y-64033690D01*
X111118327Y-63800301D01*
X110939698Y-63621673D01*
X110706309Y-63525000D01*
X110410750Y-63525000D01*
X110252000Y-63683750D01*
X109998000Y-63683750D01*
X109839250Y-63525000D01*
X109543691Y-63525000D01*
X109310302Y-63621673D01*
X109131673Y-63800301D01*
X109035000Y-64033690D01*
X107390000Y-64033690D01*
X107390000Y-60398750D01*
X112095000Y-60398750D01*
X112095000Y-60466309D01*
X112191673Y-60699698D01*
X112370301Y-60878327D01*
X112603690Y-60975000D01*
X112744250Y-60975000D01*
X112903000Y-60816250D01*
X112903000Y-60240000D01*
X113157000Y-60240000D01*
X113157000Y-60816250D01*
X113315750Y-60975000D01*
X113456310Y-60975000D01*
X113689699Y-60878327D01*
X113868327Y-60699698D01*
X113965000Y-60466309D01*
X113965000Y-60398750D01*
X114000000Y-60398750D01*
X114000000Y-60466309D01*
X114096673Y-60699698D01*
X114275301Y-60878327D01*
X114508690Y-60975000D01*
X114649250Y-60975000D01*
X114808000Y-60816250D01*
X114808000Y-60240000D01*
X114158750Y-60240000D01*
X114000000Y-60398750D01*
X113965000Y-60398750D01*
X113806250Y-60240000D01*
X113157000Y-60240000D01*
X112903000Y-60240000D01*
X112253750Y-60240000D01*
X112095000Y-60398750D01*
X107390000Y-60398750D01*
X107390000Y-52780000D01*
X112622560Y-52780000D01*
X112622560Y-55390000D01*
X112622560Y-55390000D01*
G37*
X112622560Y-55390000D02*
X112666838Y-55625317D01*
X112805910Y-55841441D01*
X113018110Y-55986431D01*
X113270000Y-56037440D01*
X114376397Y-56037440D01*
X112524419Y-57889419D01*
X112369426Y-58121381D01*
X112315000Y-58395000D01*
X112315000Y-58552461D01*
X112278559Y-58575910D01*
X112133569Y-58788110D01*
X112082560Y-59040000D01*
X112082560Y-59440000D01*
X112126838Y-59675317D01*
X112142339Y-59699406D01*
X112095000Y-59813691D01*
X112095000Y-59881250D01*
X112253750Y-60040000D01*
X112495734Y-60040000D01*
X112730000Y-60087440D01*
X113330000Y-60087440D01*
X113565317Y-60043162D01*
X113570231Y-60040000D01*
X113806250Y-60040000D01*
X113965000Y-59881250D01*
X113965000Y-59813691D01*
X113919033Y-59702717D01*
X113926431Y-59691890D01*
X113977440Y-59440000D01*
X113977440Y-59040000D01*
X113933162Y-58804683D01*
X113815042Y-58621120D01*
X115566059Y-56870104D01*
X115657639Y-57091743D01*
X115881081Y-57315575D01*
X115928551Y-57335287D01*
X114871278Y-58392560D01*
X114635000Y-58392560D01*
X114399683Y-58436838D01*
X114183559Y-58575910D01*
X114038569Y-58788110D01*
X113987560Y-59040000D01*
X113987560Y-59440000D01*
X114031838Y-59675317D01*
X114047339Y-59699406D01*
X114000000Y-59813691D01*
X114000000Y-59881250D01*
X114158750Y-60040000D01*
X114400734Y-60040000D01*
X114635000Y-60087440D01*
X115235000Y-60087440D01*
X115470317Y-60043162D01*
X115475231Y-60040000D01*
X115711250Y-60040000D01*
X115870000Y-59881250D01*
X115870000Y-59813691D01*
X115824033Y-59702717D01*
X115831431Y-59691890D01*
X115882440Y-59440000D01*
X115882440Y-59403722D01*
X115892560Y-59393602D01*
X115892560Y-59440000D01*
X115936838Y-59675317D01*
X115952339Y-59699406D01*
X115905000Y-59813691D01*
X115905000Y-59881250D01*
X116063750Y-60040000D01*
X116305734Y-60040000D01*
X116540000Y-60087440D01*
X116820990Y-60087440D01*
X116820990Y-60287000D01*
X116713000Y-60287000D01*
X116713000Y-60240000D01*
X116063750Y-60240000D01*
X115905000Y-60398750D01*
X115905000Y-60466309D01*
X115955149Y-60587380D01*
X115855829Y-60546138D01*
X115836941Y-60546122D01*
X115870000Y-60466309D01*
X115870000Y-60398750D01*
X115711250Y-60240000D01*
X115062000Y-60240000D01*
X115062000Y-60816250D01*
X115079677Y-60833927D01*
X115023425Y-60890081D01*
X114902138Y-61182171D01*
X114902095Y-61231236D01*
X114855000Y-61468000D01*
X114855000Y-61727461D01*
X114818559Y-61750910D01*
X114673569Y-61963110D01*
X114622560Y-62215000D01*
X114622560Y-62615000D01*
X114666838Y-62850317D01*
X114682339Y-62874406D01*
X114635000Y-62988691D01*
X114635000Y-63056250D01*
X114793750Y-63215000D01*
X115035734Y-63215000D01*
X115270000Y-63262440D01*
X115717000Y-63262440D01*
X115717000Y-63415000D01*
X115697000Y-63415000D01*
X115697000Y-63991250D01*
X115855750Y-64150000D01*
X115996310Y-64150000D01*
X116229699Y-64053327D01*
X116408327Y-63874698D01*
X116447613Y-63779853D01*
X116588419Y-63990583D01*
X117111417Y-64513581D01*
X117343379Y-64668574D01*
X117616998Y-64723000D01*
X119162000Y-64723000D01*
X119435619Y-64668574D01*
X119479648Y-64639155D01*
X119578110Y-64706431D01*
X119830000Y-64757440D01*
X120265001Y-64757440D01*
X120265001Y-64823420D01*
X118569839Y-66518582D01*
X118433919Y-66382425D01*
X118141829Y-66261138D01*
X117825558Y-66260862D01*
X117631610Y-66341000D01*
X114373574Y-66341000D01*
X114314090Y-66248559D01*
X114110000Y-66109110D01*
X114110000Y-65967279D01*
X114301441Y-65844090D01*
X114446431Y-65631890D01*
X114497440Y-65380000D01*
X114497440Y-64160000D01*
X114453162Y-63924683D01*
X114314090Y-63708559D01*
X114116791Y-63573750D01*
X114635000Y-63573750D01*
X114635000Y-63641309D01*
X114731673Y-63874698D01*
X114910301Y-64053327D01*
X115143690Y-64150000D01*
X115284250Y-64150000D01*
X115443000Y-63991250D01*
X115443000Y-63415000D01*
X114793750Y-63415000D01*
X114635000Y-63573750D01*
X114116791Y-63573750D01*
X114101890Y-63563569D01*
X113850000Y-63512560D01*
X112940000Y-63512560D01*
X112704683Y-63556838D01*
X112488559Y-63695910D01*
X112343569Y-63908110D01*
X112292560Y-64160000D01*
X112292560Y-64991021D01*
X112110558Y-64990862D01*
X111818257Y-65111639D01*
X111594425Y-65335081D01*
X111513949Y-65528888D01*
X110895682Y-66147156D01*
X110831890Y-66103569D01*
X110806467Y-66098421D01*
X110785574Y-65993383D01*
X110779704Y-65984599D01*
X110939698Y-65918327D01*
X111118327Y-65739699D01*
X111215000Y-65506310D01*
X111215000Y-65055750D01*
X111056250Y-64897000D01*
X110252000Y-64897000D01*
X110252000Y-64917000D01*
X109998000Y-64917000D01*
X109998000Y-64897000D01*
X109193750Y-64897000D01*
X109035000Y-65055750D01*
X109035000Y-65506310D01*
X109131673Y-65739699D01*
X109310302Y-65918327D01*
X109470296Y-65984599D01*
X109464426Y-65993383D01*
X109444204Y-66095047D01*
X109434683Y-66096838D01*
X109218559Y-66235910D01*
X109073569Y-66448110D01*
X109022560Y-66700000D01*
X109022560Y-67920000D01*
X109066838Y-68155317D01*
X109205910Y-68371441D01*
X109418110Y-68516431D01*
X109670000Y-68567440D01*
X110580000Y-68567440D01*
X110815317Y-68523162D01*
X111031441Y-68384090D01*
X111176431Y-68171890D01*
X111227440Y-67920000D01*
X111227440Y-67830375D01*
X111249581Y-67815581D01*
X112292560Y-66772603D01*
X112292560Y-67920000D01*
X112336838Y-68155317D01*
X112475910Y-68371441D01*
X112688110Y-68516431D01*
X112940000Y-68567440D01*
X113850000Y-68567440D01*
X114085317Y-68523162D01*
X114301441Y-68384090D01*
X114446431Y-68171890D01*
X114497440Y-67920000D01*
X114497440Y-67771000D01*
X117317420Y-67771000D01*
X115394210Y-69694210D01*
X115202367Y-69981325D01*
X115202367Y-69981326D01*
X115134999Y-70320000D01*
X115135000Y-70320005D01*
X115135000Y-72489995D01*
X115134999Y-72490000D01*
X115172560Y-72678828D01*
X115172560Y-72690000D01*
X115216838Y-72925317D01*
X115220000Y-72930231D01*
X115220000Y-73166250D01*
X115378750Y-73325000D01*
X115446309Y-73325000D01*
X115557283Y-73279033D01*
X115557821Y-73279401D01*
X118014208Y-75735787D01*
X118014210Y-75735790D01*
X118206054Y-75863975D01*
X118301326Y-75927634D01*
X118640000Y-75995001D01*
X118640005Y-75995000D01*
X120830331Y-75995000D01*
X120840910Y-76011441D01*
X121035000Y-76144057D01*
X121035000Y-77378874D01*
X120860330Y-77495585D01*
X120650000Y-77810366D01*
X120439670Y-77495585D01*
X119953489Y-77170729D01*
X119380000Y-77056655D01*
X118806511Y-77170729D01*
X118320330Y-77495585D01*
X118110000Y-77810366D01*
X117899670Y-77495585D01*
X117413489Y-77170729D01*
X116840000Y-77056655D01*
X116266511Y-77170729D01*
X115780330Y-77495585D01*
X115570000Y-77810366D01*
X115359670Y-77495585D01*
X114873489Y-77170729D01*
X114300000Y-77056655D01*
X113726511Y-77170729D01*
X113240330Y-77495585D01*
X113230757Y-77509913D01*
X113226762Y-77488683D01*
X113087690Y-77272559D01*
X112875490Y-77127569D01*
X112623600Y-77076560D01*
X110896400Y-77076560D01*
X110661083Y-77120838D01*
X110444959Y-77259910D01*
X110299969Y-77472110D01*
X110248960Y-77724000D01*
X110248960Y-79756000D01*
X110282641Y-79935000D01*
X107390000Y-79935000D01*
X107390000Y-72675750D01*
X114285000Y-72675750D01*
X114285000Y-72816310D01*
X114381673Y-73049699D01*
X114560302Y-73228327D01*
X114793691Y-73325000D01*
X114861250Y-73325000D01*
X115020000Y-73166250D01*
X115020000Y-72517000D01*
X114443750Y-72517000D01*
X114285000Y-72675750D01*
X107390000Y-72675750D01*
X107390000Y-71405750D01*
X114285000Y-71405750D01*
X114285000Y-71546310D01*
X114371442Y-71755000D01*
X114285000Y-71963690D01*
X114285000Y-72104250D01*
X114443750Y-72263000D01*
X115020000Y-72263000D01*
X115020000Y-71247000D01*
X114443750Y-71247000D01*
X114285000Y-71405750D01*
X107390000Y-71405750D01*
X107390000Y-70693690D01*
X114285000Y-70693690D01*
X114285000Y-70834250D01*
X114443750Y-70993000D01*
X115020000Y-70993000D01*
X115020000Y-70343750D01*
X114861250Y-70185000D01*
X114793691Y-70185000D01*
X114560302Y-70281673D01*
X114381673Y-70460301D01*
X114285000Y-70693690D01*
X107390000Y-70693690D01*
X107390000Y-64033690D01*
X109035000Y-64033690D01*
X109035000Y-64484250D01*
X109193750Y-64643000D01*
X109998000Y-64643000D01*
X109998000Y-63683750D01*
X110252000Y-63683750D01*
X110252000Y-64643000D01*
X111056250Y-64643000D01*
X111215000Y-64484250D01*
X111215000Y-64033690D01*
X111118327Y-63800301D01*
X110939698Y-63621673D01*
X110706309Y-63525000D01*
X110410750Y-63525000D01*
X110252000Y-63683750D01*
X109998000Y-63683750D01*
X109839250Y-63525000D01*
X109543691Y-63525000D01*
X109310302Y-63621673D01*
X109131673Y-63800301D01*
X109035000Y-64033690D01*
X107390000Y-64033690D01*
X107390000Y-60398750D01*
X112095000Y-60398750D01*
X112095000Y-60466309D01*
X112191673Y-60699698D01*
X112370301Y-60878327D01*
X112603690Y-60975000D01*
X112744250Y-60975000D01*
X112903000Y-60816250D01*
X112903000Y-60240000D01*
X113157000Y-60240000D01*
X113157000Y-60816250D01*
X113315750Y-60975000D01*
X113456310Y-60975000D01*
X113689699Y-60878327D01*
X113868327Y-60699698D01*
X113965000Y-60466309D01*
X113965000Y-60398750D01*
X114000000Y-60398750D01*
X114000000Y-60466309D01*
X114096673Y-60699698D01*
X114275301Y-60878327D01*
X114508690Y-60975000D01*
X114649250Y-60975000D01*
X114808000Y-60816250D01*
X114808000Y-60240000D01*
X114158750Y-60240000D01*
X114000000Y-60398750D01*
X113965000Y-60398750D01*
X113806250Y-60240000D01*
X113157000Y-60240000D01*
X112903000Y-60240000D01*
X112253750Y-60240000D01*
X112095000Y-60398750D01*
X107390000Y-60398750D01*
X107390000Y-52780000D01*
X112622560Y-52780000D01*
X112622560Y-55390000D01*
G36*
X136450000Y-79935000D02*
X135712688Y-79935000D01*
X136004526Y-79498234D01*
X136118600Y-78924745D01*
X136118600Y-78555255D01*
X136004526Y-77981766D01*
X135679670Y-77495585D01*
X135193489Y-77170729D01*
X134620000Y-77056655D01*
X134046511Y-77170729D01*
X133560330Y-77495585D01*
X133350000Y-77810366D01*
X133139670Y-77495585D01*
X132653489Y-77170729D01*
X132080000Y-77056655D01*
X131506511Y-77170729D01*
X131020330Y-77495585D01*
X130810000Y-77810366D01*
X130599670Y-77495585D01*
X130113489Y-77170729D01*
X129540000Y-77056655D01*
X128966511Y-77170729D01*
X128480330Y-77495585D01*
X128273539Y-77805069D01*
X127902036Y-77389268D01*
X127374791Y-77135291D01*
X127359026Y-77132642D01*
X127127000Y-77253783D01*
X127127000Y-78613000D01*
X127147000Y-78613000D01*
X127147000Y-78867000D01*
X127127000Y-78867000D01*
X127127000Y-78887000D01*
X126873000Y-78887000D01*
X126873000Y-78867000D01*
X126853000Y-78867000D01*
X126853000Y-78613000D01*
X126873000Y-78613000D01*
X126873000Y-77253783D01*
X126640974Y-77132642D01*
X126625209Y-77135291D01*
X126097964Y-77389268D01*
X125726461Y-77805069D01*
X125519670Y-77495585D01*
X125033489Y-77170729D01*
X124460000Y-77056655D01*
X123886511Y-77170729D01*
X123400330Y-77495585D01*
X123190000Y-77810366D01*
X122979670Y-77495585D01*
X122805000Y-77378874D01*
X122805000Y-76207440D01*
X123805000Y-76207440D01*
X124040317Y-76163162D01*
X124256441Y-76024090D01*
X124401431Y-75811890D01*
X124452440Y-75560000D01*
X124452440Y-74660000D01*
X124408162Y-74424683D01*
X124269090Y-74208559D01*
X124056890Y-74063569D01*
X123805000Y-74012560D01*
X121305000Y-74012560D01*
X121069683Y-74056838D01*
X120853559Y-74195910D01*
X120833683Y-74225000D01*
X119006579Y-74225000D01*
X116905000Y-72123420D01*
X116905000Y-70686580D01*
X117363690Y-70227890D01*
X117532081Y-70396575D01*
X117725890Y-70477052D01*
X118474416Y-71225579D01*
X118706379Y-71380572D01*
X118979998Y-71434998D01*
X120758524Y-71434998D01*
X120708569Y-71508110D01*
X120657560Y-71760000D01*
X120657560Y-72660000D01*
X120701838Y-72895317D01*
X120840910Y-73111441D01*
X121053110Y-73256431D01*
X121305000Y-73307440D01*
X123805000Y-73307440D01*
X124040317Y-73263162D01*
X124256441Y-73124090D01*
X124401431Y-72911890D01*
X124452440Y-72660000D01*
X124452440Y-71835000D01*
X125120694Y-71835000D01*
X125118569Y-71838110D01*
X125067560Y-72090000D01*
X125067560Y-72690000D01*
X125111838Y-72925317D01*
X125250910Y-73141441D01*
X125463110Y-73286431D01*
X125715000Y-73337440D01*
X126115000Y-73337440D01*
X126350317Y-73293162D01*
X126361979Y-73285658D01*
X126363110Y-73286431D01*
X126615000Y-73337440D01*
X127015000Y-73337440D01*
X127250317Y-73293162D01*
X127466441Y-73154090D01*
X127611431Y-72941890D01*
X127662440Y-72690000D01*
X127662440Y-72090000D01*
X127618162Y-71854683D01*
X127554322Y-71755472D01*
X127611431Y-71671890D01*
X127662440Y-71420000D01*
X127662440Y-70820000D01*
X127618162Y-70584683D01*
X127479090Y-70368559D01*
X127266890Y-70223569D01*
X127015000Y-70172560D01*
X126978722Y-70172560D01*
X125695581Y-68889419D01*
X125463619Y-68734426D01*
X125190000Y-68680000D01*
X124389062Y-68680000D01*
X124269090Y-68493559D01*
X124056890Y-68348569D01*
X124011737Y-68339425D01*
X125586750Y-66764413D01*
X125586750Y-67390050D01*
X125631028Y-67625367D01*
X125770100Y-67841491D01*
X125982300Y-67986481D01*
X126234190Y-68037490D01*
X127034290Y-68037490D01*
X127269607Y-67993212D01*
X127485731Y-67854140D01*
X127587634Y-67705000D01*
X127667549Y-67705000D01*
X127692081Y-67729575D01*
X127984171Y-67850862D01*
X128300442Y-67851138D01*
X128592743Y-67730361D01*
X128816575Y-67506919D01*
X128937862Y-67214829D01*
X128937973Y-67087490D01*
X129033270Y-67087490D01*
X129268587Y-67043212D01*
X129484711Y-66904140D01*
X129629701Y-66691940D01*
X129680710Y-66440050D01*
X129680710Y-65639950D01*
X129636432Y-65404633D01*
X129497360Y-65188509D01*
X129285160Y-65043519D01*
X129033270Y-64992510D01*
X128233170Y-64992510D01*
X127997853Y-65036788D01*
X127781729Y-65175860D01*
X127681730Y-65322213D01*
X127681730Y-65106292D01*
X127787631Y-65035531D01*
X129010723Y-63812440D01*
X129047000Y-63812440D01*
X129282317Y-63768162D01*
X129498441Y-63629090D01*
X129643431Y-63416890D01*
X129694440Y-63165000D01*
X129694440Y-62565000D01*
X129650162Y-62329683D01*
X129620000Y-62282810D01*
X129620000Y-57932002D01*
X129611530Y-57889419D01*
X129565575Y-57658384D01*
X129410582Y-57426421D01*
X128389892Y-56405731D01*
X128416431Y-56366890D01*
X128467440Y-56115000D01*
X128467440Y-56037440D01*
X130570000Y-56037440D01*
X130805317Y-55993162D01*
X131021441Y-55854090D01*
X131166431Y-55641890D01*
X131217440Y-55390000D01*
X131217440Y-52780000D01*
X136450000Y-52780000D01*
X136450000Y-79935000D01*
X136450000Y-79935000D01*
G37*
X136450000Y-79935000D02*
X135712688Y-79935000D01*
X136004526Y-79498234D01*
X136118600Y-78924745D01*
X136118600Y-78555255D01*
X136004526Y-77981766D01*
X135679670Y-77495585D01*
X135193489Y-77170729D01*
X134620000Y-77056655D01*
X134046511Y-77170729D01*
X133560330Y-77495585D01*
X133350000Y-77810366D01*
X133139670Y-77495585D01*
X132653489Y-77170729D01*
X132080000Y-77056655D01*
X131506511Y-77170729D01*
X131020330Y-77495585D01*
X130810000Y-77810366D01*
X130599670Y-77495585D01*
X130113489Y-77170729D01*
X129540000Y-77056655D01*
X128966511Y-77170729D01*
X128480330Y-77495585D01*
X128273539Y-77805069D01*
X127902036Y-77389268D01*
X127374791Y-77135291D01*
X127359026Y-77132642D01*
X127127000Y-77253783D01*
X127127000Y-78613000D01*
X127147000Y-78613000D01*
X127147000Y-78867000D01*
X127127000Y-78867000D01*
X127127000Y-78887000D01*
X126873000Y-78887000D01*
X126873000Y-78867000D01*
X126853000Y-78867000D01*
X126853000Y-78613000D01*
X126873000Y-78613000D01*
X126873000Y-77253783D01*
X126640974Y-77132642D01*
X126625209Y-77135291D01*
X126097964Y-77389268D01*
X125726461Y-77805069D01*
X125519670Y-77495585D01*
X125033489Y-77170729D01*
X124460000Y-77056655D01*
X123886511Y-77170729D01*
X123400330Y-77495585D01*
X123190000Y-77810366D01*
X122979670Y-77495585D01*
X122805000Y-77378874D01*
X122805000Y-76207440D01*
X123805000Y-76207440D01*
X124040317Y-76163162D01*
X124256441Y-76024090D01*
X124401431Y-75811890D01*
X124452440Y-75560000D01*
X124452440Y-74660000D01*
X124408162Y-74424683D01*
X124269090Y-74208559D01*
X124056890Y-74063569D01*
X123805000Y-74012560D01*
X121305000Y-74012560D01*
X121069683Y-74056838D01*
X120853559Y-74195910D01*
X120833683Y-74225000D01*
X119006579Y-74225000D01*
X116905000Y-72123420D01*
X116905000Y-70686580D01*
X117363690Y-70227890D01*
X117532081Y-70396575D01*
X117725890Y-70477052D01*
X118474416Y-71225579D01*
X118706379Y-71380572D01*
X118979998Y-71434998D01*
X120758524Y-71434998D01*
X120708569Y-71508110D01*
X120657560Y-71760000D01*
X120657560Y-72660000D01*
X120701838Y-72895317D01*
X120840910Y-73111441D01*
X121053110Y-73256431D01*
X121305000Y-73307440D01*
X123805000Y-73307440D01*
X124040317Y-73263162D01*
X124256441Y-73124090D01*
X124401431Y-72911890D01*
X124452440Y-72660000D01*
X124452440Y-71835000D01*
X125120694Y-71835000D01*
X125118569Y-71838110D01*
X125067560Y-72090000D01*
X125067560Y-72690000D01*
X125111838Y-72925317D01*
X125250910Y-73141441D01*
X125463110Y-73286431D01*
X125715000Y-73337440D01*
X126115000Y-73337440D01*
X126350317Y-73293162D01*
X126361979Y-73285658D01*
X126363110Y-73286431D01*
X126615000Y-73337440D01*
X127015000Y-73337440D01*
X127250317Y-73293162D01*
X127466441Y-73154090D01*
X127611431Y-72941890D01*
X127662440Y-72690000D01*
X127662440Y-72090000D01*
X127618162Y-71854683D01*
X127554322Y-71755472D01*
X127611431Y-71671890D01*
X127662440Y-71420000D01*
X127662440Y-70820000D01*
X127618162Y-70584683D01*
X127479090Y-70368559D01*
X127266890Y-70223569D01*
X127015000Y-70172560D01*
X126978722Y-70172560D01*
X125695581Y-68889419D01*
X125463619Y-68734426D01*
X125190000Y-68680000D01*
X124389062Y-68680000D01*
X124269090Y-68493559D01*
X124056890Y-68348569D01*
X124011737Y-68339425D01*
X125586750Y-66764413D01*
X125586750Y-67390050D01*
X125631028Y-67625367D01*
X125770100Y-67841491D01*
X125982300Y-67986481D01*
X126234190Y-68037490D01*
X127034290Y-68037490D01*
X127269607Y-67993212D01*
X127485731Y-67854140D01*
X127587634Y-67705000D01*
X127667549Y-67705000D01*
X127692081Y-67729575D01*
X127984171Y-67850862D01*
X128300442Y-67851138D01*
X128592743Y-67730361D01*
X128816575Y-67506919D01*
X128937862Y-67214829D01*
X128937973Y-67087490D01*
X129033270Y-67087490D01*
X129268587Y-67043212D01*
X129484711Y-66904140D01*
X129629701Y-66691940D01*
X129680710Y-66440050D01*
X129680710Y-65639950D01*
X129636432Y-65404633D01*
X129497360Y-65188509D01*
X129285160Y-65043519D01*
X129033270Y-64992510D01*
X128233170Y-64992510D01*
X127997853Y-65036788D01*
X127781729Y-65175860D01*
X127681730Y-65322213D01*
X127681730Y-65106292D01*
X127787631Y-65035531D01*
X129010723Y-63812440D01*
X129047000Y-63812440D01*
X129282317Y-63768162D01*
X129498441Y-63629090D01*
X129643431Y-63416890D01*
X129694440Y-63165000D01*
X129694440Y-62565000D01*
X129650162Y-62329683D01*
X129620000Y-62282810D01*
X129620000Y-57932002D01*
X129611530Y-57889419D01*
X129565575Y-57658384D01*
X129410582Y-57426421D01*
X128389892Y-56405731D01*
X128416431Y-56366890D01*
X128467440Y-56115000D01*
X128467440Y-56037440D01*
X130570000Y-56037440D01*
X130805317Y-55993162D01*
X131021441Y-55854090D01*
X131166431Y-55641890D01*
X131217440Y-55390000D01*
X131217440Y-52780000D01*
X136450000Y-52780000D01*
X136450000Y-79935000D01*
G36*
X120265001Y-57971182D02*
X120265001Y-61435107D01*
X119984558Y-61434862D01*
X119692257Y-61555639D01*
X119468425Y-61779081D01*
X119347138Y-62071171D01*
X119346862Y-62387442D01*
X119368712Y-62440322D01*
X119233569Y-62638110D01*
X119182560Y-62890000D01*
X119182560Y-62982297D01*
X119164418Y-62994419D01*
X118865838Y-63293000D01*
X118791000Y-63293000D01*
X118791000Y-63187998D01*
X118659252Y-63187998D01*
X118791000Y-63056250D01*
X118791000Y-62988691D01*
X118745033Y-62877717D01*
X118752431Y-62866890D01*
X118803440Y-62615000D01*
X118803440Y-62215000D01*
X118759162Y-61979683D01*
X118620090Y-61763559D01*
X118571000Y-61730017D01*
X118571000Y-60863250D01*
X118618000Y-60816250D01*
X118618000Y-60240000D01*
X118872000Y-60240000D01*
X118872000Y-60816250D01*
X119030750Y-60975000D01*
X119171310Y-60975000D01*
X119404699Y-60878327D01*
X119583327Y-60699698D01*
X119680000Y-60466309D01*
X119680000Y-60398750D01*
X119521250Y-60240000D01*
X118872000Y-60240000D01*
X118618000Y-60240000D01*
X118598000Y-60240000D01*
X118598000Y-60087440D01*
X119045000Y-60087440D01*
X119280317Y-60043162D01*
X119285231Y-60040000D01*
X119521250Y-60040000D01*
X119680000Y-59881250D01*
X119680000Y-59813691D01*
X119634033Y-59702717D01*
X119641431Y-59691890D01*
X119692440Y-59440000D01*
X119692440Y-59040000D01*
X119677076Y-58958346D01*
X119790823Y-58788110D01*
X119830574Y-58728619D01*
X119885000Y-58455000D01*
X119885000Y-57591182D01*
X120265001Y-57971182D01*
X120265001Y-57971182D01*
G37*
X120265001Y-57971182D02*
X120265001Y-61435107D01*
X119984558Y-61434862D01*
X119692257Y-61555639D01*
X119468425Y-61779081D01*
X119347138Y-62071171D01*
X119346862Y-62387442D01*
X119368712Y-62440322D01*
X119233569Y-62638110D01*
X119182560Y-62890000D01*
X119182560Y-62982297D01*
X119164418Y-62994419D01*
X118865838Y-63293000D01*
X118791000Y-63293000D01*
X118791000Y-63187998D01*
X118659252Y-63187998D01*
X118791000Y-63056250D01*
X118791000Y-62988691D01*
X118745033Y-62877717D01*
X118752431Y-62866890D01*
X118803440Y-62615000D01*
X118803440Y-62215000D01*
X118759162Y-61979683D01*
X118620090Y-61763559D01*
X118571000Y-61730017D01*
X118571000Y-60863250D01*
X118618000Y-60816250D01*
X118618000Y-60240000D01*
X118872000Y-60240000D01*
X118872000Y-60816250D01*
X119030750Y-60975000D01*
X119171310Y-60975000D01*
X119404699Y-60878327D01*
X119583327Y-60699698D01*
X119680000Y-60466309D01*
X119680000Y-60398750D01*
X119521250Y-60240000D01*
X118872000Y-60240000D01*
X118618000Y-60240000D01*
X118598000Y-60240000D01*
X118598000Y-60087440D01*
X119045000Y-60087440D01*
X119280317Y-60043162D01*
X119285231Y-60040000D01*
X119521250Y-60040000D01*
X119680000Y-59881250D01*
X119680000Y-59813691D01*
X119634033Y-59702717D01*
X119641431Y-59691890D01*
X119692440Y-59440000D01*
X119692440Y-59040000D01*
X119677076Y-58958346D01*
X119790823Y-58788110D01*
X119830574Y-58728619D01*
X119885000Y-58455000D01*
X119885000Y-57591182D01*
X120265001Y-57971182D01*
G36*
X124268110Y-56711431D02*
X124389830Y-56736080D01*
X124403750Y-56750000D01*
X124446309Y-56750000D01*
X124450335Y-56748332D01*
X124520000Y-56762440D01*
X124820000Y-56762440D01*
X124923671Y-56742933D01*
X124946319Y-56747519D01*
X123319419Y-58374419D01*
X123268682Y-58450352D01*
X123073559Y-58575910D01*
X122928569Y-58788110D01*
X122877560Y-59040000D01*
X122877560Y-59440000D01*
X122921838Y-59675317D01*
X122937339Y-59699406D01*
X122890000Y-59813691D01*
X122890000Y-59881250D01*
X123048750Y-60040000D01*
X123290734Y-60040000D01*
X123525000Y-60087440D01*
X124125000Y-60087440D01*
X124360317Y-60043162D01*
X124365231Y-60040000D01*
X124601250Y-60040000D01*
X124760000Y-59881250D01*
X124760000Y-59813691D01*
X124714033Y-59702717D01*
X124721431Y-59691890D01*
X124772440Y-59440000D01*
X124772440Y-59040000D01*
X124757193Y-58958969D01*
X124809577Y-58906585D01*
X124782560Y-59040000D01*
X124782560Y-59440000D01*
X124826838Y-59675317D01*
X124842339Y-59699406D01*
X124795000Y-59813691D01*
X124795000Y-59881250D01*
X124953750Y-60040000D01*
X125195734Y-60040000D01*
X125430000Y-60087440D01*
X126030000Y-60087440D01*
X126265317Y-60043162D01*
X126270231Y-60040000D01*
X126506250Y-60040000D01*
X126665000Y-59881250D01*
X126665000Y-59813691D01*
X126619033Y-59702717D01*
X126626431Y-59691890D01*
X126677440Y-59440000D01*
X126677440Y-59393603D01*
X126687560Y-59403723D01*
X126687560Y-59440000D01*
X126731838Y-59675317D01*
X126747339Y-59699406D01*
X126700000Y-59813691D01*
X126700000Y-59881250D01*
X126858750Y-60040000D01*
X127100734Y-60040000D01*
X127335000Y-60087440D01*
X127782000Y-60087440D01*
X127782000Y-60240000D01*
X127762000Y-60240000D01*
X127762000Y-60816250D01*
X127920750Y-60975000D01*
X128061310Y-60975000D01*
X128190000Y-60921695D01*
X128190000Y-61945750D01*
X128047000Y-62088750D01*
X128047000Y-62330734D01*
X127999560Y-62565000D01*
X127999560Y-62801277D01*
X127808837Y-62992000D01*
X127800000Y-62992000D01*
X127800000Y-62738000D01*
X127847000Y-62738000D01*
X127847000Y-62088750D01*
X127688250Y-61930000D01*
X127620691Y-61930000D01*
X127387302Y-62026673D01*
X127300000Y-62113975D01*
X127300000Y-62088691D01*
X127203327Y-61855302D01*
X127024699Y-61676673D01*
X126791310Y-61580000D01*
X126650750Y-61580000D01*
X126492000Y-61738750D01*
X126492000Y-62315000D01*
X126512000Y-62315000D01*
X126512000Y-62467560D01*
X126428723Y-62467560D01*
X126238000Y-62276837D01*
X126238000Y-61738750D01*
X126079250Y-61580000D01*
X125938690Y-61580000D01*
X125705301Y-61676673D01*
X125671568Y-61710406D01*
X125050581Y-61089419D01*
X124818619Y-60934426D01*
X124545000Y-60880000D01*
X124480660Y-60880000D01*
X124484699Y-60878327D01*
X124663327Y-60699698D01*
X124760000Y-60466309D01*
X124760000Y-60398750D01*
X124795000Y-60398750D01*
X124795000Y-60466309D01*
X124891673Y-60699698D01*
X125070301Y-60878327D01*
X125303690Y-60975000D01*
X125444250Y-60975000D01*
X125603000Y-60816250D01*
X125603000Y-60240000D01*
X125857000Y-60240000D01*
X125857000Y-60816250D01*
X126015750Y-60975000D01*
X126156310Y-60975000D01*
X126389699Y-60878327D01*
X126568327Y-60699698D01*
X126665000Y-60466309D01*
X126665000Y-60398750D01*
X126700000Y-60398750D01*
X126700000Y-60466309D01*
X126796673Y-60699698D01*
X126975301Y-60878327D01*
X127208690Y-60975000D01*
X127349250Y-60975000D01*
X127508000Y-60816250D01*
X127508000Y-60240000D01*
X126858750Y-60240000D01*
X126700000Y-60398750D01*
X126665000Y-60398750D01*
X126506250Y-60240000D01*
X125857000Y-60240000D01*
X125603000Y-60240000D01*
X124953750Y-60240000D01*
X124795000Y-60398750D01*
X124760000Y-60398750D01*
X124601250Y-60240000D01*
X123952000Y-60240000D01*
X123952000Y-60287000D01*
X123698000Y-60287000D01*
X123698000Y-60240000D01*
X123048750Y-60240000D01*
X122890000Y-60398750D01*
X122890000Y-60466309D01*
X122986673Y-60699698D01*
X123165301Y-60878327D01*
X123169340Y-60880000D01*
X122271157Y-60880000D01*
X122078829Y-60800138D01*
X122035001Y-60800100D01*
X122035001Y-57984723D01*
X122115743Y-57951361D01*
X122339575Y-57727919D01*
X122460862Y-57435829D01*
X122461138Y-57119558D01*
X122381000Y-56925610D01*
X122381000Y-56750962D01*
X122423671Y-56742933D01*
X122520000Y-56762440D01*
X122820000Y-56762440D01*
X122923671Y-56742933D01*
X123020000Y-56762440D01*
X123320000Y-56762440D01*
X123423671Y-56742933D01*
X123520000Y-56762440D01*
X123820000Y-56762440D01*
X123891324Y-56749019D01*
X123893691Y-56750000D01*
X123936250Y-56750000D01*
X123947871Y-56738379D01*
X124055317Y-56718162D01*
X124169978Y-56644380D01*
X124268110Y-56711431D01*
X124268110Y-56711431D01*
G37*
X124268110Y-56711431D02*
X124389830Y-56736080D01*
X124403750Y-56750000D01*
X124446309Y-56750000D01*
X124450335Y-56748332D01*
X124520000Y-56762440D01*
X124820000Y-56762440D01*
X124923671Y-56742933D01*
X124946319Y-56747519D01*
X123319419Y-58374419D01*
X123268682Y-58450352D01*
X123073559Y-58575910D01*
X122928569Y-58788110D01*
X122877560Y-59040000D01*
X122877560Y-59440000D01*
X122921838Y-59675317D01*
X122937339Y-59699406D01*
X122890000Y-59813691D01*
X122890000Y-59881250D01*
X123048750Y-60040000D01*
X123290734Y-60040000D01*
X123525000Y-60087440D01*
X124125000Y-60087440D01*
X124360317Y-60043162D01*
X124365231Y-60040000D01*
X124601250Y-60040000D01*
X124760000Y-59881250D01*
X124760000Y-59813691D01*
X124714033Y-59702717D01*
X124721431Y-59691890D01*
X124772440Y-59440000D01*
X124772440Y-59040000D01*
X124757193Y-58958969D01*
X124809577Y-58906585D01*
X124782560Y-59040000D01*
X124782560Y-59440000D01*
X124826838Y-59675317D01*
X124842339Y-59699406D01*
X124795000Y-59813691D01*
X124795000Y-59881250D01*
X124953750Y-60040000D01*
X125195734Y-60040000D01*
X125430000Y-60087440D01*
X126030000Y-60087440D01*
X126265317Y-60043162D01*
X126270231Y-60040000D01*
X126506250Y-60040000D01*
X126665000Y-59881250D01*
X126665000Y-59813691D01*
X126619033Y-59702717D01*
X126626431Y-59691890D01*
X126677440Y-59440000D01*
X126677440Y-59393603D01*
X126687560Y-59403723D01*
X126687560Y-59440000D01*
X126731838Y-59675317D01*
X126747339Y-59699406D01*
X126700000Y-59813691D01*
X126700000Y-59881250D01*
X126858750Y-60040000D01*
X127100734Y-60040000D01*
X127335000Y-60087440D01*
X127782000Y-60087440D01*
X127782000Y-60240000D01*
X127762000Y-60240000D01*
X127762000Y-60816250D01*
X127920750Y-60975000D01*
X128061310Y-60975000D01*
X128190000Y-60921695D01*
X128190000Y-61945750D01*
X128047000Y-62088750D01*
X128047000Y-62330734D01*
X127999560Y-62565000D01*
X127999560Y-62801277D01*
X127808837Y-62992000D01*
X127800000Y-62992000D01*
X127800000Y-62738000D01*
X127847000Y-62738000D01*
X127847000Y-62088750D01*
X127688250Y-61930000D01*
X127620691Y-61930000D01*
X127387302Y-62026673D01*
X127300000Y-62113975D01*
X127300000Y-62088691D01*
X127203327Y-61855302D01*
X127024699Y-61676673D01*
X126791310Y-61580000D01*
X126650750Y-61580000D01*
X126492000Y-61738750D01*
X126492000Y-62315000D01*
X126512000Y-62315000D01*
X126512000Y-62467560D01*
X126428723Y-62467560D01*
X126238000Y-62276837D01*
X126238000Y-61738750D01*
X126079250Y-61580000D01*
X125938690Y-61580000D01*
X125705301Y-61676673D01*
X125671568Y-61710406D01*
X125050581Y-61089419D01*
X124818619Y-60934426D01*
X124545000Y-60880000D01*
X124480660Y-60880000D01*
X124484699Y-60878327D01*
X124663327Y-60699698D01*
X124760000Y-60466309D01*
X124760000Y-60398750D01*
X124795000Y-60398750D01*
X124795000Y-60466309D01*
X124891673Y-60699698D01*
X125070301Y-60878327D01*
X125303690Y-60975000D01*
X125444250Y-60975000D01*
X125603000Y-60816250D01*
X125603000Y-60240000D01*
X125857000Y-60240000D01*
X125857000Y-60816250D01*
X126015750Y-60975000D01*
X126156310Y-60975000D01*
X126389699Y-60878327D01*
X126568327Y-60699698D01*
X126665000Y-60466309D01*
X126665000Y-60398750D01*
X126700000Y-60398750D01*
X126700000Y-60466309D01*
X126796673Y-60699698D01*
X126975301Y-60878327D01*
X127208690Y-60975000D01*
X127349250Y-60975000D01*
X127508000Y-60816250D01*
X127508000Y-60240000D01*
X126858750Y-60240000D01*
X126700000Y-60398750D01*
X126665000Y-60398750D01*
X126506250Y-60240000D01*
X125857000Y-60240000D01*
X125603000Y-60240000D01*
X124953750Y-60240000D01*
X124795000Y-60398750D01*
X124760000Y-60398750D01*
X124601250Y-60240000D01*
X123952000Y-60240000D01*
X123952000Y-60287000D01*
X123698000Y-60287000D01*
X123698000Y-60240000D01*
X123048750Y-60240000D01*
X122890000Y-60398750D01*
X122890000Y-60466309D01*
X122986673Y-60699698D01*
X123165301Y-60878327D01*
X123169340Y-60880000D01*
X122271157Y-60880000D01*
X122078829Y-60800138D01*
X122035001Y-60800100D01*
X122035001Y-57984723D01*
X122115743Y-57951361D01*
X122339575Y-57727919D01*
X122460862Y-57435829D01*
X122461138Y-57119558D01*
X122381000Y-56925610D01*
X122381000Y-56750962D01*
X122423671Y-56742933D01*
X122520000Y-56762440D01*
X122820000Y-56762440D01*
X122923671Y-56742933D01*
X123020000Y-56762440D01*
X123320000Y-56762440D01*
X123423671Y-56742933D01*
X123520000Y-56762440D01*
X123820000Y-56762440D01*
X123891324Y-56749019D01*
X123893691Y-56750000D01*
X123936250Y-56750000D01*
X123947871Y-56738379D01*
X124055317Y-56718162D01*
X124169978Y-56644380D01*
X124268110Y-56711431D01*
M02*
