G04 #@! TF.FileFunction,Legend,Top*
%FSLAX46Y46*%
G04 Gerber Fmt 4.6, Leading zero omitted, Abs format (unit mm)*
G04 Created by KiCad (PCBNEW 4.0.2+e4-6225~38~ubuntu16.04.1-stable) date Mon 15 Aug 2016 02:58:27 PM PDT*
%MOMM*%
G01*
G04 APERTURE LIST*
%ADD10C,0.150000*%
%ADD11C,1.000000*%
%ADD12C,0.125000*%
G04 APERTURE END LIST*
D10*
D11*
X133111634Y-54229000D02*
G75*
G03X133111634Y-54229000I-523634J0D01*
G01*
D12*
X135599810Y-55225572D02*
X136099810Y-55225572D01*
X135742667Y-55392238D01*
X136099810Y-55558905D01*
X135599810Y-55558905D01*
X135933143Y-56011286D02*
X135599810Y-56011286D01*
X135933143Y-55797001D02*
X135671238Y-55797001D01*
X135623619Y-55820810D01*
X135599810Y-55868429D01*
X135599810Y-55939858D01*
X135623619Y-55987477D01*
X135647429Y-56011286D01*
X135623619Y-56463667D02*
X135599810Y-56416048D01*
X135599810Y-56320810D01*
X135623619Y-56273191D01*
X135647429Y-56249382D01*
X135695048Y-56225572D01*
X135837905Y-56225572D01*
X135885524Y-56249382D01*
X135909333Y-56273191D01*
X135933143Y-56320810D01*
X135933143Y-56416048D01*
X135909333Y-56463667D01*
X135599810Y-56677953D02*
X136099810Y-56677953D01*
X135599810Y-56892238D02*
X135861714Y-56892238D01*
X135909333Y-56868429D01*
X135933143Y-56820810D01*
X135933143Y-56749381D01*
X135909333Y-56701762D01*
X135885524Y-56677953D01*
X135599810Y-57130334D02*
X135933143Y-57130334D01*
X136099810Y-57130334D02*
X136076000Y-57106524D01*
X136052190Y-57130334D01*
X136076000Y-57154143D01*
X136099810Y-57130334D01*
X136052190Y-57130334D01*
X135647429Y-58035095D02*
X135623619Y-58011285D01*
X135599810Y-57939857D01*
X135599810Y-57892238D01*
X135623619Y-57820809D01*
X135671238Y-57773190D01*
X135718857Y-57749381D01*
X135814095Y-57725571D01*
X135885524Y-57725571D01*
X135980762Y-57749381D01*
X136028381Y-57773190D01*
X136076000Y-57820809D01*
X136099810Y-57892238D01*
X136099810Y-57939857D01*
X136076000Y-58011285D01*
X136052190Y-58035095D01*
X135599810Y-58320809D02*
X135623619Y-58273190D01*
X135647429Y-58249381D01*
X135695048Y-58225571D01*
X135837905Y-58225571D01*
X135885524Y-58249381D01*
X135909333Y-58273190D01*
X135933143Y-58320809D01*
X135933143Y-58392238D01*
X135909333Y-58439857D01*
X135885524Y-58463666D01*
X135837905Y-58487476D01*
X135695048Y-58487476D01*
X135647429Y-58463666D01*
X135623619Y-58439857D01*
X135599810Y-58392238D01*
X135599810Y-58320809D01*
X135599810Y-58701762D02*
X135933143Y-58701762D01*
X135837905Y-58701762D02*
X135885524Y-58725571D01*
X135909333Y-58749381D01*
X135933143Y-58797000D01*
X135933143Y-58844619D01*
X135933143Y-59011286D02*
X135433143Y-59011286D01*
X135909333Y-59011286D02*
X135933143Y-59058905D01*
X135933143Y-59154143D01*
X135909333Y-59201762D01*
X135885524Y-59225571D01*
X135837905Y-59249381D01*
X135695048Y-59249381D01*
X135647429Y-59225571D01*
X135623619Y-59201762D01*
X135599810Y-59154143D01*
X135599810Y-59058905D01*
X135623619Y-59011286D01*
X135599810Y-59535095D02*
X135623619Y-59487476D01*
X135647429Y-59463667D01*
X135695048Y-59439857D01*
X135837905Y-59439857D01*
X135885524Y-59463667D01*
X135909333Y-59487476D01*
X135933143Y-59535095D01*
X135933143Y-59606524D01*
X135909333Y-59654143D01*
X135885524Y-59677952D01*
X135837905Y-59701762D01*
X135695048Y-59701762D01*
X135647429Y-59677952D01*
X135623619Y-59654143D01*
X135599810Y-59606524D01*
X135599810Y-59535095D01*
X135599810Y-59916048D02*
X135933143Y-59916048D01*
X135837905Y-59916048D02*
X135885524Y-59939857D01*
X135909333Y-59963667D01*
X135933143Y-60011286D01*
X135933143Y-60058905D01*
X135599810Y-60439857D02*
X135861714Y-60439857D01*
X135909333Y-60416048D01*
X135933143Y-60368429D01*
X135933143Y-60273191D01*
X135909333Y-60225572D01*
X135623619Y-60439857D02*
X135599810Y-60392238D01*
X135599810Y-60273191D01*
X135623619Y-60225572D01*
X135671238Y-60201762D01*
X135718857Y-60201762D01*
X135766476Y-60225572D01*
X135790286Y-60273191D01*
X135790286Y-60392238D01*
X135814095Y-60439857D01*
X135933143Y-60606524D02*
X135933143Y-60797000D01*
X136099810Y-60677953D02*
X135671238Y-60677953D01*
X135623619Y-60701762D01*
X135599810Y-60749381D01*
X135599810Y-60797000D01*
X135599810Y-60963667D02*
X135933143Y-60963667D01*
X136099810Y-60963667D02*
X136076000Y-60939857D01*
X136052190Y-60963667D01*
X136076000Y-60987476D01*
X136099810Y-60963667D01*
X136052190Y-60963667D01*
X135599810Y-61273190D02*
X135623619Y-61225571D01*
X135647429Y-61201762D01*
X135695048Y-61177952D01*
X135837905Y-61177952D01*
X135885524Y-61201762D01*
X135909333Y-61225571D01*
X135933143Y-61273190D01*
X135933143Y-61344619D01*
X135909333Y-61392238D01*
X135885524Y-61416047D01*
X135837905Y-61439857D01*
X135695048Y-61439857D01*
X135647429Y-61416047D01*
X135623619Y-61392238D01*
X135599810Y-61344619D01*
X135599810Y-61273190D01*
X135933143Y-61654143D02*
X135599810Y-61654143D01*
X135885524Y-61654143D02*
X135909333Y-61677952D01*
X135933143Y-61725571D01*
X135933143Y-61797000D01*
X135909333Y-61844619D01*
X135861714Y-61868428D01*
X135599810Y-61868428D01*
X134798619Y-53416049D02*
X134774810Y-53368430D01*
X134774810Y-53273192D01*
X134798619Y-53225573D01*
X134846238Y-53201763D01*
X135036714Y-53201763D01*
X135084333Y-53225573D01*
X135108143Y-53273192D01*
X135108143Y-53368430D01*
X135084333Y-53416049D01*
X135036714Y-53439858D01*
X134989095Y-53439858D01*
X134941476Y-53201763D01*
X134965286Y-53654144D02*
X134965286Y-54035096D01*
X134774810Y-54273192D02*
X135108143Y-54273192D01*
X135274810Y-54273192D02*
X135251000Y-54249382D01*
X135227190Y-54273192D01*
X135251000Y-54297001D01*
X135274810Y-54273192D01*
X135227190Y-54273192D01*
X135108143Y-54511287D02*
X134774810Y-54511287D01*
X135060524Y-54511287D02*
X135084333Y-54535096D01*
X135108143Y-54582715D01*
X135108143Y-54654144D01*
X135084333Y-54701763D01*
X135036714Y-54725572D01*
X134774810Y-54725572D01*
X134774810Y-54963668D02*
X135274810Y-54963668D01*
X134965286Y-55011287D02*
X134774810Y-55154144D01*
X135108143Y-55154144D02*
X134917667Y-54963668D01*
X134774810Y-55963667D02*
X135274810Y-55963667D01*
X134798619Y-55963667D02*
X134774810Y-55916048D01*
X134774810Y-55820810D01*
X134798619Y-55773191D01*
X134822429Y-55749382D01*
X134870048Y-55725572D01*
X135012905Y-55725572D01*
X135060524Y-55749382D01*
X135084333Y-55773191D01*
X135108143Y-55820810D01*
X135108143Y-55916048D01*
X135084333Y-55963667D01*
X134774810Y-56201763D02*
X135108143Y-56201763D01*
X135274810Y-56201763D02*
X135251000Y-56177953D01*
X135227190Y-56201763D01*
X135251000Y-56225572D01*
X135274810Y-56201763D01*
X135227190Y-56201763D01*
X134798619Y-56416048D02*
X134774810Y-56463667D01*
X134774810Y-56558905D01*
X134798619Y-56606524D01*
X134846238Y-56630334D01*
X134870048Y-56630334D01*
X134917667Y-56606524D01*
X134941476Y-56558905D01*
X134941476Y-56487477D01*
X134965286Y-56439858D01*
X135012905Y-56416048D01*
X135036714Y-56416048D01*
X135084333Y-56439858D01*
X135108143Y-56487477D01*
X135108143Y-56558905D01*
X135084333Y-56606524D01*
X135108143Y-56844620D02*
X134608143Y-56844620D01*
X135084333Y-56844620D02*
X135108143Y-56892239D01*
X135108143Y-56987477D01*
X135084333Y-57035096D01*
X135060524Y-57058905D01*
X135012905Y-57082715D01*
X134870048Y-57082715D01*
X134822429Y-57058905D01*
X134798619Y-57035096D01*
X134774810Y-56987477D01*
X134774810Y-56892239D01*
X134798619Y-56844620D01*
X134774810Y-57368429D02*
X134798619Y-57320810D01*
X134846238Y-57297001D01*
X135274810Y-57297001D01*
X134774810Y-57773191D02*
X135036714Y-57773191D01*
X135084333Y-57749382D01*
X135108143Y-57701763D01*
X135108143Y-57606525D01*
X135084333Y-57558906D01*
X134798619Y-57773191D02*
X134774810Y-57725572D01*
X134774810Y-57606525D01*
X134798619Y-57558906D01*
X134846238Y-57535096D01*
X134893857Y-57535096D01*
X134941476Y-57558906D01*
X134965286Y-57606525D01*
X134965286Y-57725572D01*
X134989095Y-57773191D01*
X135108143Y-57963668D02*
X134774810Y-58082715D01*
X135108143Y-58201763D02*
X134774810Y-58082715D01*
X134655762Y-58035096D01*
X134631952Y-58011287D01*
X134608143Y-57963668D01*
X134774810Y-58987476D02*
X135036714Y-58987476D01*
X135084333Y-58963667D01*
X135108143Y-58916048D01*
X135108143Y-58820810D01*
X135084333Y-58773191D01*
X134798619Y-58987476D02*
X134774810Y-58939857D01*
X134774810Y-58820810D01*
X134798619Y-58773191D01*
X134846238Y-58749381D01*
X134893857Y-58749381D01*
X134941476Y-58773191D01*
X134965286Y-58820810D01*
X134965286Y-58939857D01*
X134989095Y-58987476D01*
X134774810Y-59439857D02*
X135274810Y-59439857D01*
X134798619Y-59439857D02*
X134774810Y-59392238D01*
X134774810Y-59297000D01*
X134798619Y-59249381D01*
X134822429Y-59225572D01*
X134870048Y-59201762D01*
X135012905Y-59201762D01*
X135060524Y-59225572D01*
X135084333Y-59249381D01*
X135108143Y-59297000D01*
X135108143Y-59392238D01*
X135084333Y-59439857D01*
X134774810Y-59892238D02*
X135036714Y-59892238D01*
X135084333Y-59868429D01*
X135108143Y-59820810D01*
X135108143Y-59725572D01*
X135084333Y-59677953D01*
X134798619Y-59892238D02*
X134774810Y-59844619D01*
X134774810Y-59725572D01*
X134798619Y-59677953D01*
X134846238Y-59654143D01*
X134893857Y-59654143D01*
X134941476Y-59677953D01*
X134965286Y-59725572D01*
X134965286Y-59844619D01*
X134989095Y-59892238D01*
X135108143Y-60130334D02*
X134608143Y-60130334D01*
X135084333Y-60130334D02*
X135108143Y-60177953D01*
X135108143Y-60273191D01*
X135084333Y-60320810D01*
X135060524Y-60344619D01*
X135012905Y-60368429D01*
X134870048Y-60368429D01*
X134822429Y-60344619D01*
X134798619Y-60320810D01*
X134774810Y-60273191D01*
X134774810Y-60177953D01*
X134798619Y-60130334D01*
X135108143Y-60511286D02*
X135108143Y-60701762D01*
X135274810Y-60582715D02*
X134846238Y-60582715D01*
X134798619Y-60606524D01*
X134774810Y-60654143D01*
X134774810Y-60701762D01*
X134798619Y-61058905D02*
X134774810Y-61011286D01*
X134774810Y-60916048D01*
X134798619Y-60868429D01*
X134846238Y-60844619D01*
X135036714Y-60844619D01*
X135084333Y-60868429D01*
X135108143Y-60916048D01*
X135108143Y-61011286D01*
X135084333Y-61058905D01*
X135036714Y-61082714D01*
X134989095Y-61082714D01*
X134941476Y-60844619D01*
X134774810Y-61297000D02*
X135108143Y-61297000D01*
X135012905Y-61297000D02*
X135060524Y-61320809D01*
X135084333Y-61344619D01*
X135108143Y-61392238D01*
X135108143Y-61439857D01*
X134774810Y-61987476D02*
X135274810Y-61987476D01*
X135084333Y-61987476D02*
X135108143Y-62035095D01*
X135108143Y-62130333D01*
X135084333Y-62177952D01*
X135060524Y-62201761D01*
X135012905Y-62225571D01*
X134870048Y-62225571D01*
X134822429Y-62201761D01*
X134798619Y-62177952D01*
X134774810Y-62130333D01*
X134774810Y-62035095D01*
X134798619Y-61987476D01*
X134774810Y-62511285D02*
X134798619Y-62463666D01*
X134822429Y-62439857D01*
X134870048Y-62416047D01*
X135012905Y-62416047D01*
X135060524Y-62439857D01*
X135084333Y-62463666D01*
X135108143Y-62511285D01*
X135108143Y-62582714D01*
X135084333Y-62630333D01*
X135060524Y-62654142D01*
X135012905Y-62677952D01*
X134870048Y-62677952D01*
X134822429Y-62654142D01*
X134798619Y-62630333D01*
X134774810Y-62582714D01*
X134774810Y-62511285D01*
X134774810Y-63106523D02*
X135036714Y-63106523D01*
X135084333Y-63082714D01*
X135108143Y-63035095D01*
X135108143Y-62939857D01*
X135084333Y-62892238D01*
X134798619Y-63106523D02*
X134774810Y-63058904D01*
X134774810Y-62939857D01*
X134798619Y-62892238D01*
X134846238Y-62868428D01*
X134893857Y-62868428D01*
X134941476Y-62892238D01*
X134965286Y-62939857D01*
X134965286Y-63058904D01*
X134989095Y-63106523D01*
X134774810Y-63344619D02*
X135108143Y-63344619D01*
X135012905Y-63344619D02*
X135060524Y-63368428D01*
X135084333Y-63392238D01*
X135108143Y-63439857D01*
X135108143Y-63487476D01*
X134774810Y-63868428D02*
X135274810Y-63868428D01*
X134798619Y-63868428D02*
X134774810Y-63820809D01*
X134774810Y-63725571D01*
X134798619Y-63677952D01*
X134822429Y-63654143D01*
X134870048Y-63630333D01*
X135012905Y-63630333D01*
X135060524Y-63654143D01*
X135084333Y-63677952D01*
X135108143Y-63725571D01*
X135108143Y-63820809D01*
X135084333Y-63868428D01*
X134283143Y-57832716D02*
X133949810Y-57951763D01*
X134283143Y-58070811D01*
X134449810Y-58356525D02*
X134449810Y-58404144D01*
X134426000Y-58451763D01*
X134402190Y-58475572D01*
X134354571Y-58499382D01*
X134259333Y-58523191D01*
X134140286Y-58523191D01*
X134045048Y-58499382D01*
X133997429Y-58475572D01*
X133973619Y-58451763D01*
X133949810Y-58404144D01*
X133949810Y-58356525D01*
X133973619Y-58308906D01*
X133997429Y-58285096D01*
X134045048Y-58261287D01*
X134140286Y-58237477D01*
X134259333Y-58237477D01*
X134354571Y-58261287D01*
X134402190Y-58285096D01*
X134426000Y-58308906D01*
X134449810Y-58356525D01*
X133997429Y-58737477D02*
X133973619Y-58761286D01*
X133949810Y-58737477D01*
X133973619Y-58713667D01*
X133997429Y-58737477D01*
X133949810Y-58737477D01*
X134402190Y-58951762D02*
X134426000Y-58975572D01*
X134449810Y-59023191D01*
X134449810Y-59142238D01*
X134426000Y-59189857D01*
X134402190Y-59213667D01*
X134354571Y-59237476D01*
X134306952Y-59237476D01*
X134235524Y-59213667D01*
X133949810Y-58927953D01*
X133949810Y-59237476D01*
D10*
X118381000Y-63115000D02*
X118381000Y-62615000D01*
X117331000Y-62615000D02*
X117331000Y-63115000D01*
X126615000Y-71865000D02*
X126115000Y-71865000D01*
X126115000Y-72915000D02*
X126615000Y-72915000D01*
X126615000Y-70595000D02*
X126115000Y-70595000D01*
X126115000Y-71645000D02*
X126615000Y-71645000D01*
X123300000Y-59440000D02*
X123300000Y-59940000D01*
X124350000Y-59940000D02*
X124350000Y-59440000D01*
X126255000Y-59940000D02*
X126255000Y-59440000D01*
X125205000Y-59440000D02*
X125205000Y-59940000D01*
X119270000Y-59940000D02*
X119270000Y-59440000D01*
X118220000Y-59440000D02*
X118220000Y-59940000D01*
X116095000Y-63115000D02*
X116095000Y-62615000D01*
X115045000Y-62615000D02*
X115045000Y-63115000D01*
X125840000Y-62615000D02*
X125840000Y-63115000D01*
X126890000Y-63115000D02*
X126890000Y-62615000D01*
X117365000Y-59940000D02*
X117365000Y-59440000D01*
X116315000Y-59440000D02*
X116315000Y-59940000D01*
X115460000Y-59940000D02*
X115460000Y-59440000D01*
X114410000Y-59440000D02*
X114410000Y-59940000D01*
X113555000Y-59940000D02*
X113555000Y-59440000D01*
X112505000Y-59440000D02*
X112505000Y-59940000D01*
X111442500Y-67310000D02*
X111061500Y-67310000D01*
X112458500Y-67310000D02*
X112077500Y-67310000D01*
X112077500Y-67310000D02*
X111442500Y-67691000D01*
X111442500Y-67691000D02*
X111442500Y-66929000D01*
X111442500Y-66929000D02*
X112077500Y-67310000D01*
X112077500Y-67818000D02*
X112077500Y-66802000D01*
X113760000Y-66410000D02*
X110220000Y-66410000D01*
X113760000Y-68210000D02*
X110220000Y-68210000D01*
X122237500Y-63500000D02*
X122618500Y-63500000D01*
X121221500Y-63500000D02*
X121602500Y-63500000D01*
X121602500Y-63500000D02*
X122237500Y-63119000D01*
X122237500Y-63119000D02*
X122237500Y-63881000D01*
X122237500Y-63881000D02*
X121602500Y-63500000D01*
X121602500Y-62992000D02*
X121602500Y-64008000D01*
X119920000Y-64400000D02*
X123460000Y-64400000D01*
X119920000Y-62600000D02*
X123460000Y-62600000D01*
X112077500Y-64770000D02*
X112458500Y-64770000D01*
X111061500Y-64770000D02*
X111442500Y-64770000D01*
X111442500Y-64770000D02*
X112077500Y-64389000D01*
X112077500Y-64389000D02*
X112077500Y-65151000D01*
X112077500Y-65151000D02*
X111442500Y-64770000D01*
X111442500Y-64262000D02*
X111442500Y-65278000D01*
X109760000Y-65670000D02*
X113300000Y-65670000D01*
X109760000Y-63870000D02*
X113300000Y-63870000D01*
X121080000Y-74660000D02*
X121080000Y-72660000D01*
X124030000Y-72660000D02*
X124030000Y-74660000D01*
X124030000Y-66945000D02*
X124030000Y-68945000D01*
X121080000Y-68945000D02*
X121080000Y-66945000D01*
X113030000Y-77470000D02*
X135890000Y-77470000D01*
X135890000Y-77470000D02*
X135890000Y-80010000D01*
X135890000Y-80010000D02*
X113030000Y-80010000D01*
X110210000Y-77190000D02*
X111760000Y-77190000D01*
X113030000Y-77470000D02*
X113030000Y-80010000D01*
X111760000Y-80290000D02*
X110210000Y-80290000D01*
X110210000Y-80290000D02*
X110210000Y-77190000D01*
X128285240Y-67339160D02*
X128285240Y-67290900D01*
X127584200Y-64540180D02*
X128285240Y-64540180D01*
X128285240Y-64540180D02*
X128285240Y-64789100D01*
X128285240Y-67339160D02*
X128285240Y-67539820D01*
X128285240Y-67539820D02*
X127584200Y-67539820D01*
X128147000Y-63390000D02*
X128647000Y-63390000D01*
X128647000Y-62340000D02*
X128147000Y-62340000D01*
X128160000Y-59940000D02*
X128160000Y-59440000D01*
X127110000Y-59440000D02*
X127110000Y-59940000D01*
X115320000Y-72915000D02*
X115820000Y-72915000D01*
X115820000Y-71865000D02*
X115320000Y-71865000D01*
X115320000Y-71645000D02*
X115820000Y-71645000D01*
X115820000Y-70595000D02*
X115320000Y-70595000D01*
X130920000Y-55540000D02*
X130920000Y-51140000D01*
X112920000Y-55540000D02*
X112920000Y-51140000D01*
X130920000Y-51140000D02*
X112920000Y-51140000D01*
X130920000Y-55540000D02*
X112920000Y-55540000D01*
X117689334Y-65000143D02*
X117641715Y-65047762D01*
X117498858Y-65095381D01*
X117403620Y-65095381D01*
X117260762Y-65047762D01*
X117165524Y-64952524D01*
X117117905Y-64857286D01*
X117070286Y-64666810D01*
X117070286Y-64523952D01*
X117117905Y-64333476D01*
X117165524Y-64238238D01*
X117260762Y-64143000D01*
X117403620Y-64095381D01*
X117498858Y-64095381D01*
X117641715Y-64143000D01*
X117689334Y-64190619D01*
X118546477Y-64095381D02*
X118356000Y-64095381D01*
X118260762Y-64143000D01*
X118213143Y-64190619D01*
X118117905Y-64333476D01*
X118070286Y-64523952D01*
X118070286Y-64904905D01*
X118117905Y-65000143D01*
X118165524Y-65047762D01*
X118260762Y-65095381D01*
X118451239Y-65095381D01*
X118546477Y-65047762D01*
X118594096Y-65000143D01*
X118641715Y-64904905D01*
X118641715Y-64666810D01*
X118594096Y-64571571D01*
X118546477Y-64523952D01*
X118451239Y-64476333D01*
X118260762Y-64476333D01*
X118165524Y-64523952D01*
X118117905Y-64571571D01*
X118070286Y-64666810D01*
X128357334Y-73001143D02*
X128309715Y-73048762D01*
X128166858Y-73096381D01*
X128071620Y-73096381D01*
X127928762Y-73048762D01*
X127833524Y-72953524D01*
X127785905Y-72858286D01*
X127738286Y-72667810D01*
X127738286Y-72524952D01*
X127785905Y-72334476D01*
X127833524Y-72239238D01*
X127928762Y-72144000D01*
X128071620Y-72096381D01*
X128166858Y-72096381D01*
X128309715Y-72144000D01*
X128357334Y-72191619D01*
X129309715Y-73096381D02*
X128738286Y-73096381D01*
X129024000Y-73096381D02*
X129024000Y-72096381D01*
X128928762Y-72239238D01*
X128833524Y-72334476D01*
X128738286Y-72382095D01*
X128357334Y-71223143D02*
X128309715Y-71270762D01*
X128166858Y-71318381D01*
X128071620Y-71318381D01*
X127928762Y-71270762D01*
X127833524Y-71175524D01*
X127785905Y-71080286D01*
X127738286Y-70889810D01*
X127738286Y-70746952D01*
X127785905Y-70556476D01*
X127833524Y-70461238D01*
X127928762Y-70366000D01*
X128071620Y-70318381D01*
X128166858Y-70318381D01*
X128309715Y-70366000D01*
X128357334Y-70413619D01*
X128738286Y-70413619D02*
X128785905Y-70366000D01*
X128881143Y-70318381D01*
X129119239Y-70318381D01*
X129214477Y-70366000D01*
X129262096Y-70413619D01*
X129309715Y-70508857D01*
X129309715Y-70604095D01*
X129262096Y-70746952D01*
X128690667Y-71318381D01*
X129309715Y-71318381D01*
X121753334Y-58142143D02*
X121705715Y-58189762D01*
X121562858Y-58237381D01*
X121467620Y-58237381D01*
X121324762Y-58189762D01*
X121229524Y-58094524D01*
X121181905Y-57999286D01*
X121134286Y-57808810D01*
X121134286Y-57665952D01*
X121181905Y-57475476D01*
X121229524Y-57380238D01*
X121324762Y-57285000D01*
X121467620Y-57237381D01*
X121562858Y-57237381D01*
X121705715Y-57285000D01*
X121753334Y-57332619D01*
X122086667Y-57237381D02*
X122705715Y-57237381D01*
X122372381Y-57618333D01*
X122515239Y-57618333D01*
X122610477Y-57665952D01*
X122658096Y-57713571D01*
X122705715Y-57808810D01*
X122705715Y-58046905D01*
X122658096Y-58142143D01*
X122610477Y-58189762D01*
X122515239Y-58237381D01*
X122229524Y-58237381D01*
X122134286Y-58189762D01*
X122086667Y-58142143D01*
X125817334Y-58269143D02*
X125769715Y-58316762D01*
X125626858Y-58364381D01*
X125531620Y-58364381D01*
X125388762Y-58316762D01*
X125293524Y-58221524D01*
X125245905Y-58126286D01*
X125198286Y-57935810D01*
X125198286Y-57792952D01*
X125245905Y-57602476D01*
X125293524Y-57507238D01*
X125388762Y-57412000D01*
X125531620Y-57364381D01*
X125626858Y-57364381D01*
X125769715Y-57412000D01*
X125817334Y-57459619D01*
X126674477Y-57697714D02*
X126674477Y-58364381D01*
X126436381Y-57316762D02*
X126198286Y-58031048D01*
X126817334Y-58031048D01*
X118578334Y-58142143D02*
X118530715Y-58189762D01*
X118387858Y-58237381D01*
X118292620Y-58237381D01*
X118149762Y-58189762D01*
X118054524Y-58094524D01*
X118006905Y-57999286D01*
X117959286Y-57808810D01*
X117959286Y-57665952D01*
X118006905Y-57475476D01*
X118054524Y-57380238D01*
X118149762Y-57285000D01*
X118292620Y-57237381D01*
X118387858Y-57237381D01*
X118530715Y-57285000D01*
X118578334Y-57332619D01*
X119483096Y-57237381D02*
X119006905Y-57237381D01*
X118959286Y-57713571D01*
X119006905Y-57665952D01*
X119102143Y-57618333D01*
X119340239Y-57618333D01*
X119435477Y-57665952D01*
X119483096Y-57713571D01*
X119530715Y-57808810D01*
X119530715Y-58046905D01*
X119483096Y-58142143D01*
X119435477Y-58189762D01*
X119340239Y-58237381D01*
X119102143Y-58237381D01*
X119006905Y-58189762D01*
X118959286Y-58142143D01*
X115403334Y-65000143D02*
X115355715Y-65047762D01*
X115212858Y-65095381D01*
X115117620Y-65095381D01*
X114974762Y-65047762D01*
X114879524Y-64952524D01*
X114831905Y-64857286D01*
X114784286Y-64666810D01*
X114784286Y-64523952D01*
X114831905Y-64333476D01*
X114879524Y-64238238D01*
X114974762Y-64143000D01*
X115117620Y-64095381D01*
X115212858Y-64095381D01*
X115355715Y-64143000D01*
X115403334Y-64190619D01*
X115736667Y-64095381D02*
X116403334Y-64095381D01*
X115974762Y-65095381D01*
X125325143Y-62142666D02*
X125372762Y-62190285D01*
X125420381Y-62333142D01*
X125420381Y-62428380D01*
X125372762Y-62571238D01*
X125277524Y-62666476D01*
X125182286Y-62714095D01*
X124991810Y-62761714D01*
X124848952Y-62761714D01*
X124658476Y-62714095D01*
X124563238Y-62666476D01*
X124468000Y-62571238D01*
X124420381Y-62428380D01*
X124420381Y-62333142D01*
X124468000Y-62190285D01*
X124515619Y-62142666D01*
X124848952Y-61571238D02*
X124801333Y-61666476D01*
X124753714Y-61714095D01*
X124658476Y-61761714D01*
X124610857Y-61761714D01*
X124515619Y-61714095D01*
X124468000Y-61666476D01*
X124420381Y-61571238D01*
X124420381Y-61380761D01*
X124468000Y-61285523D01*
X124515619Y-61237904D01*
X124610857Y-61190285D01*
X124658476Y-61190285D01*
X124753714Y-61237904D01*
X124801333Y-61285523D01*
X124848952Y-61380761D01*
X124848952Y-61571238D01*
X124896571Y-61666476D01*
X124944190Y-61714095D01*
X125039429Y-61761714D01*
X125229905Y-61761714D01*
X125325143Y-61714095D01*
X125372762Y-61666476D01*
X125420381Y-61571238D01*
X125420381Y-61380761D01*
X125372762Y-61285523D01*
X125325143Y-61237904D01*
X125229905Y-61190285D01*
X125039429Y-61190285D01*
X124944190Y-61237904D01*
X124896571Y-61285523D01*
X124848952Y-61380761D01*
X116673334Y-58142143D02*
X116625715Y-58189762D01*
X116482858Y-58237381D01*
X116387620Y-58237381D01*
X116244762Y-58189762D01*
X116149524Y-58094524D01*
X116101905Y-57999286D01*
X116054286Y-57808810D01*
X116054286Y-57665952D01*
X116101905Y-57475476D01*
X116149524Y-57380238D01*
X116244762Y-57285000D01*
X116387620Y-57237381D01*
X116482858Y-57237381D01*
X116625715Y-57285000D01*
X116673334Y-57332619D01*
X117149524Y-58237381D02*
X117340000Y-58237381D01*
X117435239Y-58189762D01*
X117482858Y-58142143D01*
X117578096Y-57999286D01*
X117625715Y-57808810D01*
X117625715Y-57427857D01*
X117578096Y-57332619D01*
X117530477Y-57285000D01*
X117435239Y-57237381D01*
X117244762Y-57237381D01*
X117149524Y-57285000D01*
X117101905Y-57332619D01*
X117054286Y-57427857D01*
X117054286Y-57665952D01*
X117101905Y-57761190D01*
X117149524Y-57808810D01*
X117244762Y-57856429D01*
X117435239Y-57856429D01*
X117530477Y-57808810D01*
X117578096Y-57761190D01*
X117625715Y-57665952D01*
X113657143Y-58142143D02*
X113609524Y-58189762D01*
X113466667Y-58237381D01*
X113371429Y-58237381D01*
X113228571Y-58189762D01*
X113133333Y-58094524D01*
X113085714Y-57999286D01*
X113038095Y-57808810D01*
X113038095Y-57665952D01*
X113085714Y-57475476D01*
X113133333Y-57380238D01*
X113228571Y-57285000D01*
X113371429Y-57237381D01*
X113466667Y-57237381D01*
X113609524Y-57285000D01*
X113657143Y-57332619D01*
X114609524Y-58237381D02*
X114038095Y-58237381D01*
X114323809Y-58237381D02*
X114323809Y-57237381D01*
X114228571Y-57380238D01*
X114133333Y-57475476D01*
X114038095Y-57523095D01*
X115228571Y-57237381D02*
X115323810Y-57237381D01*
X115419048Y-57285000D01*
X115466667Y-57332619D01*
X115514286Y-57427857D01*
X115561905Y-57618333D01*
X115561905Y-57856429D01*
X115514286Y-58046905D01*
X115466667Y-58142143D01*
X115419048Y-58189762D01*
X115323810Y-58237381D01*
X115228571Y-58237381D01*
X115133333Y-58189762D01*
X115085714Y-58142143D01*
X115038095Y-58046905D01*
X114990476Y-57856429D01*
X114990476Y-57618333D01*
X115038095Y-57427857D01*
X115085714Y-57332619D01*
X115133333Y-57285000D01*
X115228571Y-57237381D01*
X111482143Y-60332857D02*
X111529762Y-60380476D01*
X111577381Y-60523333D01*
X111577381Y-60618571D01*
X111529762Y-60761429D01*
X111434524Y-60856667D01*
X111339286Y-60904286D01*
X111148810Y-60951905D01*
X111005952Y-60951905D01*
X110815476Y-60904286D01*
X110720238Y-60856667D01*
X110625000Y-60761429D01*
X110577381Y-60618571D01*
X110577381Y-60523333D01*
X110625000Y-60380476D01*
X110672619Y-60332857D01*
X111577381Y-59380476D02*
X111577381Y-59951905D01*
X111577381Y-59666191D02*
X110577381Y-59666191D01*
X110720238Y-59761429D01*
X110815476Y-59856667D01*
X110863095Y-59951905D01*
X111577381Y-58428095D02*
X111577381Y-58999524D01*
X111577381Y-58713810D02*
X110577381Y-58713810D01*
X110720238Y-58809048D01*
X110815476Y-58904286D01*
X110863095Y-58999524D01*
X111021905Y-65857381D02*
X111021905Y-64857381D01*
X111260000Y-64857381D01*
X111402858Y-64905000D01*
X111498096Y-65000238D01*
X111545715Y-65095476D01*
X111593334Y-65285952D01*
X111593334Y-65428810D01*
X111545715Y-65619286D01*
X111498096Y-65714524D01*
X111402858Y-65809762D01*
X111260000Y-65857381D01*
X111021905Y-65857381D01*
X112545715Y-65857381D02*
X111974286Y-65857381D01*
X112260000Y-65857381D02*
X112260000Y-64857381D01*
X112164762Y-65000238D01*
X112069524Y-65095476D01*
X111974286Y-65143095D01*
X121181905Y-61952381D02*
X121181905Y-60952381D01*
X121420000Y-60952381D01*
X121562858Y-61000000D01*
X121658096Y-61095238D01*
X121705715Y-61190476D01*
X121753334Y-61380952D01*
X121753334Y-61523810D01*
X121705715Y-61714286D01*
X121658096Y-61809524D01*
X121562858Y-61904762D01*
X121420000Y-61952381D01*
X121181905Y-61952381D01*
X122134286Y-61047619D02*
X122181905Y-61000000D01*
X122277143Y-60952381D01*
X122515239Y-60952381D01*
X122610477Y-61000000D01*
X122658096Y-61047619D01*
X122705715Y-61142857D01*
X122705715Y-61238095D01*
X122658096Y-61380952D01*
X122086667Y-61952381D01*
X122705715Y-61952381D01*
X111021905Y-63222381D02*
X111021905Y-62222381D01*
X111260000Y-62222381D01*
X111402858Y-62270000D01*
X111498096Y-62365238D01*
X111545715Y-62460476D01*
X111593334Y-62650952D01*
X111593334Y-62793810D01*
X111545715Y-62984286D01*
X111498096Y-63079524D01*
X111402858Y-63174762D01*
X111260000Y-63222381D01*
X111021905Y-63222381D01*
X111926667Y-62222381D02*
X112545715Y-62222381D01*
X112212381Y-62603333D01*
X112355239Y-62603333D01*
X112450477Y-62650952D01*
X112498096Y-62698571D01*
X112545715Y-62793810D01*
X112545715Y-63031905D01*
X112498096Y-63127143D01*
X112450477Y-63174762D01*
X112355239Y-63222381D01*
X112069524Y-63222381D01*
X111974286Y-63174762D01*
X111926667Y-63127143D01*
X120594381Y-73572666D02*
X120594381Y-74048857D01*
X119594381Y-74048857D01*
X120594381Y-72715523D02*
X120594381Y-73286952D01*
X120594381Y-73001238D02*
X119594381Y-73001238D01*
X119737238Y-73096476D01*
X119832476Y-73191714D01*
X119880095Y-73286952D01*
X120307381Y-68111666D02*
X120307381Y-68587857D01*
X119307381Y-68587857D01*
X119402619Y-67825952D02*
X119355000Y-67778333D01*
X119307381Y-67683095D01*
X119307381Y-67444999D01*
X119355000Y-67349761D01*
X119402619Y-67302142D01*
X119497857Y-67254523D01*
X119593095Y-67254523D01*
X119735952Y-67302142D01*
X120307381Y-67873571D01*
X120307381Y-67254523D01*
X112212381Y-55348095D02*
X111212381Y-55348095D01*
X111212381Y-54967142D01*
X111260000Y-54871904D01*
X111307619Y-54824285D01*
X111402857Y-54776666D01*
X111545714Y-54776666D01*
X111640952Y-54824285D01*
X111688571Y-54871904D01*
X111736190Y-54967142D01*
X111736190Y-55348095D01*
X111307619Y-54395714D02*
X111260000Y-54348095D01*
X111212381Y-54252857D01*
X111212381Y-54014761D01*
X111260000Y-53919523D01*
X111307619Y-53871904D01*
X111402857Y-53824285D01*
X111498095Y-53824285D01*
X111640952Y-53871904D01*
X112212381Y-54443333D01*
X112212381Y-53824285D01*
X130722619Y-66262238D02*
X130675000Y-66357476D01*
X130579762Y-66452714D01*
X130436905Y-66595571D01*
X130389286Y-66690810D01*
X130389286Y-66786048D01*
X130627381Y-66738429D02*
X130579762Y-66833667D01*
X130484524Y-66928905D01*
X130294048Y-66976524D01*
X129960714Y-66976524D01*
X129770238Y-66928905D01*
X129675000Y-66833667D01*
X129627381Y-66738429D01*
X129627381Y-66547952D01*
X129675000Y-66452714D01*
X129770238Y-66357476D01*
X129960714Y-66309857D01*
X130294048Y-66309857D01*
X130484524Y-66357476D01*
X130579762Y-66452714D01*
X130627381Y-66547952D01*
X130627381Y-66738429D01*
X130627381Y-65357476D02*
X130627381Y-65928905D01*
X130627381Y-65643191D02*
X129627381Y-65643191D01*
X129770238Y-65738429D01*
X129865476Y-65833667D01*
X129913095Y-65928905D01*
X128230334Y-65117381D02*
X127897000Y-64641190D01*
X127658905Y-65117381D02*
X127658905Y-64117381D01*
X128039858Y-64117381D01*
X128135096Y-64165000D01*
X128182715Y-64212619D01*
X128230334Y-64307857D01*
X128230334Y-64450714D01*
X128182715Y-64545952D01*
X128135096Y-64593571D01*
X128039858Y-64641190D01*
X127658905Y-64641190D01*
X129182715Y-65117381D02*
X128611286Y-65117381D01*
X128897000Y-65117381D02*
X128897000Y-64117381D01*
X128801762Y-64260238D01*
X128706524Y-64355476D01*
X128611286Y-64403095D01*
X129887381Y-59856666D02*
X129411190Y-60190000D01*
X129887381Y-60428095D02*
X128887381Y-60428095D01*
X128887381Y-60047142D01*
X128935000Y-59951904D01*
X128982619Y-59904285D01*
X129077857Y-59856666D01*
X129220714Y-59856666D01*
X129315952Y-59904285D01*
X129363571Y-59951904D01*
X129411190Y-60047142D01*
X129411190Y-60428095D01*
X128982619Y-59475714D02*
X128935000Y-59428095D01*
X128887381Y-59332857D01*
X128887381Y-59094761D01*
X128935000Y-58999523D01*
X128982619Y-58951904D01*
X129077857Y-58904285D01*
X129173095Y-58904285D01*
X129315952Y-58951904D01*
X129887381Y-59523333D01*
X129887381Y-58904285D01*
X114927143Y-74547143D02*
X114879524Y-74594762D01*
X114736667Y-74642381D01*
X114641429Y-74642381D01*
X114498571Y-74594762D01*
X114403333Y-74499524D01*
X114355714Y-74404286D01*
X114308095Y-74213810D01*
X114308095Y-74070952D01*
X114355714Y-73880476D01*
X114403333Y-73785238D01*
X114498571Y-73690000D01*
X114641429Y-73642381D01*
X114736667Y-73642381D01*
X114879524Y-73690000D01*
X114927143Y-73737619D01*
X115879524Y-74642381D02*
X115308095Y-74642381D01*
X115593809Y-74642381D02*
X115593809Y-73642381D01*
X115498571Y-73785238D01*
X115403333Y-73880476D01*
X115308095Y-73928095D01*
X116212857Y-73642381D02*
X116831905Y-73642381D01*
X116498571Y-74023333D01*
X116641429Y-74023333D01*
X116736667Y-74070952D01*
X116784286Y-74118571D01*
X116831905Y-74213810D01*
X116831905Y-74451905D01*
X116784286Y-74547143D01*
X116736667Y-74594762D01*
X116641429Y-74642381D01*
X116355714Y-74642381D01*
X116260476Y-74594762D01*
X116212857Y-74547143D01*
X114673143Y-69826143D02*
X114625524Y-69873762D01*
X114482667Y-69921381D01*
X114387429Y-69921381D01*
X114244571Y-69873762D01*
X114149333Y-69778524D01*
X114101714Y-69683286D01*
X114054095Y-69492810D01*
X114054095Y-69349952D01*
X114101714Y-69159476D01*
X114149333Y-69064238D01*
X114244571Y-68969000D01*
X114387429Y-68921381D01*
X114482667Y-68921381D01*
X114625524Y-68969000D01*
X114673143Y-69016619D01*
X115625524Y-69921381D02*
X115054095Y-69921381D01*
X115339809Y-69921381D02*
X115339809Y-68921381D01*
X115244571Y-69064238D01*
X115149333Y-69159476D01*
X115054095Y-69207095D01*
X116006476Y-69016619D02*
X116054095Y-68969000D01*
X116149333Y-68921381D01*
X116387429Y-68921381D01*
X116482667Y-68969000D01*
X116530286Y-69016619D01*
X116577905Y-69111857D01*
X116577905Y-69207095D01*
X116530286Y-69349952D01*
X115958857Y-69921381D01*
X116577905Y-69921381D01*
X120312858Y-60518571D02*
X120312858Y-59018571D01*
X120884286Y-59018571D01*
X121027144Y-59090000D01*
X121098572Y-59161429D01*
X121170001Y-59304286D01*
X121170001Y-59518571D01*
X121098572Y-59661429D01*
X121027144Y-59732857D01*
X120884286Y-59804286D01*
X120312858Y-59804286D01*
X122598572Y-60518571D02*
X121741429Y-60518571D01*
X122170001Y-60518571D02*
X122170001Y-59018571D01*
X122027144Y-59232857D01*
X121884286Y-59375714D01*
X121741429Y-59447143D01*
D12*
X129062857Y-56566190D02*
X128777143Y-56566190D01*
X128920000Y-56566190D02*
X128920000Y-56066190D01*
X128872381Y-56137619D01*
X128824762Y-56185238D01*
X128777143Y-56209048D01*
M02*
