M48
;DRILL file {KiCad 4.0.2+e4-6225~38~ubuntu16.04.1-stable} date Sat 16 Jul 2016 01:47:47 AM PDT
;FORMAT={2:4/ absolute / inch / suppress leading zeros}
FMAT,2
INCH,TZ
T1C0.012
T2C0.040
%
G90
G05
M72
T1
X44200Y-25900
X45550Y-24150
X45800Y-22300
X46450Y-26400
X46450Y-27450
X46700Y-21350
X47114Y-23446
X47300Y-24500
X47500Y-30100
X47700Y-22350
X47850Y-21100
X47900Y-22550
X48000Y-24250
X48200Y-23550
X48200Y-26650
X48250Y-28000
X48294Y-20906
X48400Y-20700
X48450Y-30100
X48650Y-21350
X50200Y-23050
X50450Y-26400
X50550Y-24200
X51000Y-24200
T2
X44000Y-31000
X45000Y-31000
X46000Y-31000
X47000Y-31000
X48000Y-31000
X49000Y-31000
X50000Y-31000
X51000Y-31000
X52000Y-31000
X53000Y-31000
T0
M30
